<?xml version="1.0" encoding="UTF-8"?>
<svg width="38px" height="34px" viewBox="0 0 38 34" version="1.1" xmlns="http://www.w3.org/2000/svg" xmlns:xlink="http://www.w3.org/1999/xlink">
    <!-- Generator: Sketch 52.4 (67378) - http://www.bohemiancoding.com/sketch -->
    <title>Icon</title>
    <desc>Created with Sketch.</desc>
    <defs>
        <path d="M1342.42968,59.1728942 L1344.78419,70.5454479 L1366.08555,70.5454479 L1368.47513,59.1728942 L1342.42968,59.1728942 Z M1340.4944,56.0819983 L1370.41613,56.0819983 C1371.41843,56.0819983 1372.16853,56.9795573 1371.96715,57.9379448 L1368.92812,72.4013944 C1368.77707,73.120275 1368.12892,73.6363438 1367.37709,73.6363438 L1343.48884,73.6363438 C1342.73529,73.6363438 1342.08616,73.1179663 1341.9369,72.3970178 L1338.94246,57.9335682 C1338.7443,56.9764043 1339.49396,56.0819983 1340.4944,56.0819983 Z M1338.20683,55.0908958 L1335.58331,55.0908958 C1334.70887,55.0908958 1334,54.3989752 1334,53.5454479 C1334,52.6919206 1334.70887,52 1335.58331,52 L1339.44068,52 C1340.16612,52 1340.79876,52.4812206 1340.97601,53.1678518 L1342.02972,57.2498501 C1342.24337,58.0775092 1341.72918,58.9175151 1340.88125,59.1260557 C1340.03331,59.3345963 1339.17273,58.8327016 1338.95908,58.0050424 L1338.20683,55.0908958 Z M1343.76163,79.0454115 C1344.63607,79.0454487 1345.34491,79.7373994 1345.34487,80.5909267 C1345.34484,81.444454 1344.63593,82.1363445 1343.7615,82.1363073 C1339.8237,82.13614 1337.16662,79.4899159 1337.16662,76.3408776 C1337.16662,73.2397076 1339.76,70.5454479 1343.48884,70.5454479 L1344.06846,70.5454479 C1344.9429,70.5454479 1345.65177,71.2373685 1345.65177,72.0908958 C1345.65177,72.9444232 1344.9429,73.6363438 1344.06846,73.6363438 L1343.48884,73.6363438 C1341.55454,73.6363438 1340.33324,74.9051576 1340.33324,76.3408776 C1340.33324,77.7966425 1341.58704,79.0453191 1343.76163,79.0454115 Z M1363.44117,82.9091042 C1364.73846,82.9091042 1365.79378,81.8731502 1365.79378,80.5908594 C1365.79378,79.3085686 1364.73846,78.2726147 1363.44117,78.2726147 C1362.14388,78.2726147 1361.08856,79.3085686 1361.08856,80.5908594 C1361.08856,80.6307167 1361.08957,80.6703879 1361.09157,80.7098576 C1361.15402,81.9401644 1362.18847,82.9091042 1363.44117,82.9091042 Z M1351.72076,82.331786 C1349.60968,82.331786 1349.60968,79.2408902 1351.72076,79.2408902 L1358.09526,79.2408902 C1358.70696,76.9077896 1360.86712,75.1817188 1363.44117,75.1817188 C1366.49138,75.1817188 1368.9604,77.6054332 1368.9604,80.5908594 C1368.9604,83.5762857 1366.49138,86 1363.44117,86 C1361.02029,86 1358.9547,84.4697061 1358.214,82.331786 L1351.72076,82.331786 Z M1347.69749,82.9089584 C1348.99478,82.9089584 1350.0501,81.8730045 1350.0501,80.5907137 C1350.0501,79.3084229 1348.99478,78.272469 1347.69749,78.272469 C1346.4002,78.272469 1345.34487,79.3084229 1345.34487,80.5907137 C1345.34487,81.8730045 1346.4002,82.9089584 1347.69749,82.9089584 Z M1347.69749,85.9998543 C1344.64728,85.9998543 1342.17826,83.57614 1342.17826,80.5907137 C1342.17826,77.6052875 1344.64728,75.1815731 1347.69749,75.1815731 C1350.74769,75.1815731 1353.21672,77.6052875 1353.21672,80.5907137 C1353.21672,83.57614 1350.74769,85.9998543 1347.69749,85.9998543 Z" id="path-1"></path>
    </defs>
    <g id="Design" stroke="none" stroke-width="1" fill="none" fill-rule="evenodd">
        <g id="WOW" transform="translate(-1334.000000, -52.000000)">
            <g id="Header-#2">
                <mask id="mask-2" fill="white">
                    <use xlink:href="#path-1"></use>
                </mask>
                <use id="Icon" fill="#297FCA" fill-rule="nonzero" xlink:href="#path-1"></use>
            </g>
        </g>
    </g>
</svg>