<?xml version="1.0" encoding="UTF-8"?>
<svg width="292px" height="226px" viewBox="0 0 292 226" version="1.1" xmlns="http://www.w3.org/2000/svg" xmlns:xlink="http://www.w3.org/1999/xlink">
    <!-- Generator: Sketch 52 (66869) - http://www.bohemiancoding.com/sketch -->
    <title>Group-of-three-backpacks</title>
    <desc>Created with Sketch.</desc>
    <defs>
        <polygon id="path-1" points="0.06 0.266953414 283.46916 0.266953414 283.46916 126.585 0.06 126.585"></polygon>
        <polygon id="path-3" points="0.745 0.94 274.173 0.94 274.173 226 0.745 226"></polygon>
    </defs>
    <g id="Page-1" stroke="none" stroke-width="1" fill="none" fill-rule="evenodd">
        <g id="People" transform="translate(-753.000000, -70.000000)">
            <g id="Group-of-three-backpacks" transform="translate(753.000000, 70.000000)">
                <g id="Group-5" transform="translate(0.000000, 1.000000)">
                    <mask id="mask-2" fill="white">
                        <use xlink:href="#path-1"></use>
                    </mask>
                    <g id="Clip-2"></g>
                    <path d="M279.833,125.339 C280.857,125.063 281.927,124.693 282.585,123.865 C282.404,123.864 282.225,123.894 282.059,123.991 C282.225,123.894 282.404,123.864 282.585,123.865 L282.606,123.849 L282.585,123.865 L282.624,123.871 L282.748,123.733 C283.665,123.014 283.876,121.901 282.374,118.209 C281.491,116.04 281.38,114.724 280.969,112.102 C280.524,109.262 277.125,100.031 276.802,99.006 C276.48,97.98 276.99,97.713 276.99,97.713 C276.99,97.713 277.492,96.041 277.491,95.867 C277.49,95.694 275.244,89.976 275.244,89.976 L272.416,76.092 L244.623,62.062 C244.623,62.062 210.419,64.062 209.416,64.262 C208.412,64.462 203.804,65.809 203.103,66.242 C201.055,67.504 198.837,70.96 198.422,71.859 C198.129,72.497 194.468,81.965 193.716,83.741 C192.551,86.495 192.338,88.012 192.241,91.771 C192.158,94.982 191.633,101.319 190.834,105.831 C190.577,107.286 191.573,107.976 192.557,108.377 L192.606,108.378 C195.433,108.609 198.259,108.84 201.086,109.071 L200.938,108.998 L201.086,109.071 L201.13,109.075 L201.078,108.952 C202.601,108.972 203.953,107.885 204.054,106.338 C204.097,105.689 204.631,103.717 204.795,103.055 C204.959,102.393 204.721,101.402 205.117,99.497 C205.473,97.776 205.88,94.969 206.01,94.126 C206.219,92.781 206.376,92.445 207.463,91.323 C208.568,90.182 210.006,88.809 210.745,88.043 C211.61,90.994 213.068,93.097 215.541,95.094 C217.071,96.332 218.113,97.63 218.248,99.513 C218.416,101.863 219.171,104.889 220.261,106.393 L220.883,107.826 L221.798,109.896 L224.179,115.987 L230.854,121.774 L248.318,126.001 L255.145,122.168 L261.997,116.784 L263.031,113.235 C263.383,112.529 263.463,112.382 263.559,112.191 C265.875,113.444 267.196,117.639 268.304,121.796 C269.149,124.964 270.311,126.497 272.346,126.585 C272.738,126.522 273.135,126.478 273.523,126.446 C275.654,126.268 277.769,125.897 279.833,125.339" id="Fill-1" fill="#EDEEEA" mask="url(#mask-2)"></path>
                    <path d="M6.564,19.864 C5.295,21.897 3.055,26.347 1.545,29.826 C0.762,31.63 0.253,33.641 0.06,36.115 C-0.298,40.684 0.995,48.6 2.799,55.315 C3.756,58.876 3.73,59.506 3.204,61.453 C2.631,63.574 2.531,64.988 2.928,66.421 C3.033,66.802 4.239,69.23 5.355,70.76 C6.305,72.062 8.167,72.661 10.11,72.62 C10.815,72.605 15.354,72.849 16.146,72.661 C17.391,72.366 17.676,71.049 16.849,70.098 C16.432,69.618 15.796,69.085 16.187,68.155 C16.608,67.154 16.377,65.444 15.939,64.31 C15.564,63.338 15.411,62.544 13.878,61.729 C11.757,60.601 11.034,59.237 11.046,56.897 C11.083,49.749 11.822,43.422 10.912,38.712 C10.718,37.707 10.875,37.095 11.281,36.464 C12.627,34.375 16.451,28.078 17.389,25.318 C17.63,24.61 14.944,20.735 14.944,20.735 L8.501,18.571 C8.501,18.571 6.936,19.269 6.564,19.864" id="Fill-3" fill="#875A38" mask="url(#mask-2)"></path>
                    <path d="M28.049,1.049 C19.587,-0.72 17.204,0.61 12.753,4.051 C11.922,4.694 11.294,5.508 10.873,6.487 C9.703,9.205 7.744,13.712 6.198,16.383 C5.479,17.625 5.935,19.086 6.338,19.587 C10.457,24.726 14.73,25.27 18.317,25.352 C18.412,23.033 19.769,14.166 19.859,13.465 C20.128,11.36 20.972,9.44 22.529,7.372 C24.294,5.028 26.518,2.438 28.049,1.049" id="Fill-4" fill="#636463" mask="url(#mask-2)"></path>
                </g>
                <path d="M62.87,30.805 L60.946,35.773 C61.843,34.426 62.629,32.744 62.87,30.805" id="Fill-6" fill="#1A1919"></path>
                <path d="M61.97,16.63 C61.99,15.776 61.887,15.003 61.544,14.412 C61.816,15.035 61.929,15.81 61.97,16.63" id="Fill-7" fill="#1A1919"></path>
                <path d="M60.791,22.258 L60.79,22.26 C58.489,26.806 57.869,27.017 51.402,30.04 C44.935,33.063 51.402,34.703 51.402,34.703 L60.939,35.783 L60.946,35.773 L62.87,30.805 C63.157,28.503 62.669,25.85 60.58,22.971 C60.646,22.742 60.719,22.498 60.791,22.258" id="Fill-8" fill="#1A1919"></path>
                <g id="Group-14" transform="translate(17.000000, 0.000000)">
                    <mask id="mask-4" fill="white">
                        <use xlink:href="#path-3"></use>
                    </mask>
                    <g id="Clip-10"></g>
                    <path d="M34.402,30.04 C40.869,27.017 41.489,26.806 43.79,22.261 L43.791,22.258 C44.328,20.445 44.929,18.359 44.97,16.63 C44.929,15.81 44.816,15.035 44.544,14.412 C43.668,12.407 42.248,7.155 40.889,5.623 C39.125,4 36.364,2.639 34.21,2.208 C33.414,2.048 27.925,1.782 27.033,1.77 C25.213,1.745 22.285,2.432 20.552,3.566 C12.116,8.362 11.152,15.849 11.049,16.18 C10.953,16.488 9.967,19.022 10.838,20.39 C10.904,20.337 10.937,20.388 10.949,20.553 L11.049,20.7 L10.957,20.696 C10.968,21.25 10.906,22.514 11.049,24.757 C11.096,25.501 10.511,26.034 10.628,26.534 C10.729,26.965 10.859,27.313 11.019,27.594 C11.688,28.771 12.892,28.749 14.824,28.582 C15.058,30.686 15.642,33.258 19.463,34.479 C20.25,34.186 20.552,35.245 20.903,36.063 C22.245,39.195 23.447,41.432 25.929,41.791 C28.726,42.196 32.241,42.609 36.704,41.531 C39.635,40.823 41.617,38.816 43.206,36.803 C43.452,36.492 43.698,36.144 43.939,35.783 L34.402,34.703 C34.402,34.703 27.935,33.063 34.402,30.04" id="Fill-9" fill="#1A1919" mask="url(#mask-4)"></path>
                    <path d="M19.137,1.953 C18.202,1.238 17.106,1.24 14.091,0.959 C12.843,0.842 11.795,1.269 11.049,2.048 C10.406,2.21 9.881,2.323 9.881,2.323 L1.626,8.29 L0.745,25.052 C0.745,25.052 1.373,25.817 1.316,26.352 C0.814,31.107 1.425,31.659 4.725,37.017 C5.001,37.463 5.676,37.67 5.932,37.446 L6.078,37.44 C5.185,35.076 5.155,33.168 5.74,30.564 C6.253,28.281 6.999,25.182 8.895,22.499 C9.013,22.333 10.135,21.15 10.57,20.673 L10.769,20.453 L10.838,20.39 C9.967,19.022 10.953,16.488 11.049,16.18 C11.152,15.849 12.116,8.362 20.552,3.566 C19.992,2.781 19.582,2.293 19.137,1.953" id="Fill-11" fill="#2A67A3" mask="url(#mask-4)"></path>
                    <path d="M165.636,226 C162.979,226 159.783,225.156 155.03,222.72 C153.523,221.947 152.563,221.426 150.574,221.234 C145.172,220.714 145.211,217.951 140.129,213.608 C138.403,212.134 137.911,211.622 135.575,211.622 C135.265,211.622 134.923,211.631 134.541,211.648 C134.424,211.653 134.309,211.656 134.194,211.656 C128.25,211.656 124.171,204.835 124.002,197.349 C123.942,194.691 122.342,193.813 119.869,193.813 C117.603,193.813 114.604,194.551 111.389,195.331 C111.382,195.332 111.375,195.333 111.369,195.333 C110.683,195.333 112.989,185.833 113.091,185.675 C113.194,185.516 113.547,171.987 113.457,171.897 C113.366,171.807 106.603,167.685 104.725,167.449 C104.094,167.37 103.497,167.332 102.933,167.332 C96.254,167.332 94.255,172.66 95.494,178.013 C96.543,182.548 94.756,184.594 90.323,184.594 C89.8,184.594 89.239,184.566 88.643,184.509 C86.464,189.53 82.317,191.204 78.152,191.204 C73.904,191.204 69.638,189.462 67.429,187.757 C58.87,181.148 56.072,182.908 51.273,180.449 C38.068,173.684 37.009,168.08 36.464,162.793 C36.254,160.759 34.996,158.75 34.293,157.906 C32.256,155.455 32.568,151.668 33.667,147.531 C33.937,146.52 33.92,145.705 33.069,144.536 C31.538,142.438 28.473,137.159 27.359,135.322 C24.797,131.096 27.207,127.667 30.874,125.112 C30.964,125.049 51.034,95.031 53.03,95.031 C53.059,95.031 53.084,95.037 53.105,95.049 C59.798,99.047 60.33,101.025 61.897,104.689 C63.397,108.195 69.638,114.554 73.802,115.695 C74.96,116.013 83.023,121.834 85.04,122.037 C90.542,122.593 92.718,131.494 97.609,134.793 C98.181,135.178 131.989,138.399 133.024,140.018 C136.658,145.695 141.069,146.395 142.527,147.314 C147.426,150.397 152.483,158.9 153.207,159.806 C154.635,161.597 155.612,162.114 157.571,162.857 C160.841,164.099 162.649,167.595 164.223,170.386 C166.68,174.743 166.776,177.593 163.675,181.61 C163.168,182.268 163.179,182.898 163.814,183.831 C166.076,187.153 172.793,192.23 173.793,193.509 C177.417,198.142 178.748,203.837 175.796,207.237 C173.287,210.126 172.168,212.566 173.793,215.656 C174.941,217.839 175.595,223.298 171.639,224.714 C169.625,225.435 167.81,226 165.636,226" id="Fill-12" fill="#B4B5B4" mask="url(#mask-4)"></path>
                    <path d="M259.198,202.32 C258.026,202.32 256.851,202.224 255.673,202.035 C250.404,201.185 247.453,198.054 243.793,193.88 C241.871,191.689 240.068,191.196 237.379,190.965 C234.946,190.756 232.034,189.386 230.429,187.362 C228.113,184.442 222.531,183.198 217.3,183.198 C216.802,183.198 216.306,183.209 215.817,183.232 C215.813,183.232 215.809,183.232 215.805,183.232 C214.296,183.232 216.675,170.057 216.541,169.249 C215.717,164.254 211.423,159.382 209.711,156.47 C206.111,150.343 208.676,145.657 210.507,142.833 C211.965,140.585 213.525,138.492 213.527,132.375 C213.527,132.375 222.779,129.272 230.553,126.816 L231.318,127.001 L233.03,126.04 C237.028,124.801 240.236,123.876 240.909,123.876 C240.979,123.876 241.021,123.886 241.035,123.906 C241.452,124.526 244.882,127.13 245.857,127.693 C247.375,128.569 248.206,129.023 249.077,129.023 C249.485,129.023 249.902,128.923 250.402,128.72 C250.998,128.478 251.593,128.377 252.181,128.377 C254.16,128.377 256.054,129.526 257.564,130.363 C258.478,130.869 269.177,140.776 270.773,147.228 C271.734,151.111 275.188,156.18 269.094,159.427 C275.351,167.094 272.353,168.451 270.649,170.222 C269.971,170.928 270.2,171.602 270.527,172.214 C273.328,177.455 274.727,180.355 273.969,184.216 C273.15,188.388 272.353,190.364 268.806,194.126 C269.868,195.934 268.956,200.357 265.585,201.367 C263.461,202.003 261.334,202.32 259.198,202.32" id="Fill-13" fill="#B4B5B4" mask="url(#mask-4)"></path>
                </g>
                <path d="M248.318,127.001 L247.553,126.816 C248.4,126.548 249.231,126.288 250.03,126.04 L248.318,127.001" id="Fill-15" fill="#A6A8A6"></path>
                <path d="M94.804,121.616 C94.804,121.616 93.836,122.791 93.73,123.087 C93.439,123.903 93.342,125.96 92.709,127.453 C92.319,128.374 92.29,129.647 92.769,130.405 C93.321,131.277 93.822,132.59 94.564,133.482 C95.789,134.957 96.34,134.535 96.633,134.837 C98.08,136.324 98.601,136.31 99.808,136.283 C100.493,136.268 102.541,136.283 104.438,135.902 C105.356,135.718 105.674,134.55 104.968,133.961 C103.466,132.707 101.765,134.036 101.697,132.104 C101.672,131.395 103.049,130.483 103.359,131.002 C105.073,133.872 106.635,132.483 106.279,131.179 C105.79,129.387 104.998,127.627 104.832,126.557 C104.61,125.124 102.82,123.743 102.029,122.648 C101.834,122.38 99.415,121.243 99.415,121.243 L94.804,121.616" id="Fill-16" fill="#E7BD9A"></path>
                <path d="M234.861,149.325 C234.784,150.775 237.247,158.715 237.409,161.18 C237.441,161.668 236.747,162.046 236.747,162.046 L237.575,165.646 L240.399,167.172 L244.542,167.117 L246.951,166.513 L248.554,164.711 L249.415,162.623 L249.46,160.788 C249.782,158.993 251.405,153.017 251.537,151.832 C251.608,151.205 249.68,150.665 249.68,150.665 L234.861,149.325" id="Fill-17" fill="#E7BD9A"></path>
                <path d="M153.965,125.34 C153.541,127.987 153.859,130.212 152.906,132.753 C152.69,133.33 152.694,134.871 148.988,136.248 C147.36,136.852 141.834,137.942 140.077,138.281 C138.581,138.569 137.233,139.318 135.972,136.467 C135.406,135.187 132.131,126.405 130.456,124.493 C129.206,123.068 129.288,123.112 128.983,124.851 C128.758,126.126 127.685,129.389 126.819,131.102 C125.774,133.165 125.508,132.779 124.078,131.949 C119.986,129.569 117.11,127.098 115.432,124.451 L115.402,124.484 C115.216,126.206 114.931,131.039 114.527,133.05 C114.037,135.499 114.183,139.899 114.694,140.958 C115.001,141.594 116.233,145.529 117.496,146.435 C119.16,147.628 120.343,148.473 123.66,148.979 C123.416,150.587 121.339,155.946 120.143,158.649 C118.914,161.43 118.753,164.611 120.587,166.158 C121.297,166.756 123.586,168.806 123.939,169 C125.693,169.956 126.367,172.031 127.122,173.28 C127.68,174.205 127.716,175.604 127.716,175.604 L130.696,176.729 L137.645,176.51 L138.628,174.617 L139.087,171.181 C139.087,171.181 138.749,170.161 138.665,169.668 C140.151,164.483 140.263,161.34 137.624,159.023 C142.015,151.683 149.109,146.234 151.559,138.332 C152.016,136.861 151.963,137.298 156.054,137.274 C155.55,133.478 154.775,127.327 153.965,125.34" id="Fill-18" fill="#E7BD9A"></path>
                <path d="M175.856,106.453 C174.077,104.34 173.063,103.278 172.194,100.374 C171.873,99.305 171.917,98.305 171.139,97.505 C170.753,97.108 165.764,92.322 163.168,89.733 C164.264,95.451 164.801,98.887 165.931,103.101 C168.136,111.321 166.985,121.552 169.311,134.371 C172.276,133.795 175.912,132.607 179.044,130.533 C179.603,130.162 180.071,128.962 180.083,128.363 C180.323,115.963 180.433,111.882 175.856,106.453" id="Fill-19" fill="#E7BD9A"></path>
                <path d="M168.861,141.109 C166.184,143.274 162.894,143.556 160.34,142.87 C160.092,146.488 159.49,145.455 159.351,148.644 C159.234,151.299 158.315,152.319 158.239,154.2 C158.155,156.326 160.504,155.3 161.556,153.52 C162.662,151.649 163.323,153.94 161.641,155.986 C160.605,157.246 161.801,158.468 163.341,157.698 C165.066,156.836 165.773,156.421 166.236,155.265 C167.358,152.461 168.163,154.875 169.097,152.776 C170.046,150.64 171.42,149.779 170.4,147.058 C170.075,146.193 169.318,143.197 168.861,141.109" id="Fill-20" fill="#E7BD9A"></path>
                <path d="M153.965,125.34 C153.541,127.987 153.859,130.212 152.906,132.753 C152.69,133.33 152.694,134.871 148.988,136.248 C147.36,136.852 141.834,137.942 140.077,138.281 C138.581,138.569 137.233,139.318 135.972,136.467 C135.406,135.187 132.131,126.405 130.456,124.493 C129.206,123.068 129.288,123.112 128.983,124.851 C128.758,126.126 127.685,129.389 126.819,131.102 C125.774,133.165 125.508,132.779 124.078,131.949 C119.986,129.569 117.11,127.098 115.432,124.451 L115.402,124.484 C115.216,126.206 114.931,131.039 114.527,133.05 C114.037,135.499 114.183,139.899 114.694,140.958 C115.001,141.594 116.233,145.529 117.496,146.435 C119.16,147.628 120.343,148.473 123.66,148.979 C123.416,150.587 121.339,155.946 120.143,158.649 C118.914,161.43 118.753,164.611 120.587,166.158 C121.297,166.756 123.586,168.806 123.939,169 C125.693,169.956 126.367,172.031 127.122,173.28 C127.68,174.205 127.716,175.604 127.716,175.604 L130.696,176.729 L137.645,176.51 L138.628,174.617 L139.087,171.181 C139.087,171.181 138.749,170.161 138.665,169.668 C140.151,164.483 140.263,161.34 137.624,159.023 C142.015,151.683 149.109,146.234 151.559,138.332 C152.016,136.861 151.963,137.298 156.054,137.274 C155.55,133.478 154.775,127.327 153.965,125.34" id="Fill-21" fill="#E78B2E"></path>
                <path d="M175.856,106.453 C174.077,104.34 173.063,103.278 172.194,100.374 C171.873,99.305 171.917,98.305 171.139,97.505 C170.753,97.108 165.764,92.322 163.168,89.733 C164.264,95.451 164.801,98.887 165.931,103.101 C168.136,111.321 166.985,121.552 169.311,134.371 C172.276,133.795 175.912,132.607 179.044,130.533 C179.603,130.162 180.071,128.962 180.083,128.363 C180.323,115.963 180.433,111.882 175.856,106.453" id="Fill-22" fill="#BF9864"></path>
                <path d="M168.861,141.109 C166.184,143.274 162.894,143.556 160.34,142.87 C160.092,146.488 159.49,145.455 159.351,148.644 C159.234,151.299 158.315,152.319 158.239,154.2 C158.155,156.326 160.504,155.3 161.556,153.52 C162.662,151.649 163.323,153.94 161.641,155.986 C160.605,157.246 161.801,158.468 163.341,157.698 C165.066,156.836 165.773,156.421 166.236,155.265 C167.358,152.461 168.163,154.875 169.097,152.776 C170.046,150.64 171.42,149.779 170.4,147.058 C170.075,146.193 169.318,143.197 168.861,141.109" id="Fill-23" fill="#E7BD9A"></path>
                <path d="M91.042,43.327 C92.343,44.908 98.225,52.678 99.923,55.565 C101.201,57.735 101.415,58.77 101.353,60.556 C101.284,62.556 100.985,67.34 95.825,79.687 C95.281,80.992 94.744,83.112 94.886,84.223 C95.072,85.662 95.564,87.916 95.002,89.675 C94.794,90.331 92.557,93.349 91.266,93.815 C89.974,94.28 87.337,95.163 85.014,95.822 C84.215,96.049 83.319,95.849 82.625,95.353 C81.932,94.857 78.284,93.82 77.894,93.06 C77.504,92.299 78.613,91.561 79.252,91.541 C81.062,91.487 81.042,91.937 81.556,91.925 C81.556,90.389 82.973,90.776 83.807,90.499 C84.843,90.155 84.854,88.209 83.484,88.763 C82.585,89.126 81.227,90.17 80.002,90.381 C77.938,90.737 76.593,89.492 77.677,88.666 C79.03,87.637 80.618,86.469 80.88,86.053 C81.401,85.224 81.497,84.904 82.764,84.517 C83.337,84.342 84.944,83.698 85.288,83.42 C86.441,82.487 87.081,81.234 87.1,80.84 C87.498,72.217 86.615,67.535 88.636,61.797 C88.836,61.229 88.787,60.802 88.337,60.555 C86,59.269 83.307,56.87 82.074,55.009 C81.35,53.916 81.182,49.01 81.182,49.01 L90.169,43.156 L91.042,43.327" id="Fill-24" fill="#875A38"></path>
                <path d="M29.542,58.702 C29.671,59.414 29.008,64.754 28.658,67.634 C28.568,68.377 28.123,72.469 28.658,74.505 C29.275,76.856 30.365,79.78 30.954,82.696 C31.792,86.852 35.213,90.091 42.302,90.799 C42.968,90.866 43.734,95.711 43.284,97.278 C43.067,98.028 43.051,99.792 43.087,101.223 C43.121,102.595 43.698,109.389 42.963,112.56 C42.493,114.59 43.085,117.804 43.872,119.461 C45.738,123.387 46.326,125.547 49.579,126.121 C54.075,126.914 53.42,128.348 60.031,125.169 C61.288,124.565 61.274,126.259 61.274,126.259 L66.665,126.454 L74.255,122.226 L76.783,119.055 C76.783,119.055 75.482,115.362 75.416,114.382 C75.073,109.262 73.643,105.925 68.489,104.338 C67.78,104.12 67.862,103.682 67.945,103.261 C68.726,99.279 71.456,94.084 71.772,89.809 C71.924,87.753 72.251,86.271 72.826,84.982 C73.083,84.411 74.106,83.398 74.5,80.672 C75.304,75.112 74.291,70.562 75.398,67.757 C75.799,66.742 29.542,58.702 29.542,58.702" id="Fill-25" fill="#1A1919"></path>
                <path d="M90.941,41.613 C90.331,40.833 89.294,39.517 88.188,38.112 C86.076,35.433 83.693,32.403 83.412,31.973 C81.459,28.981 80.027,28.098 79.528,27.758 C76.55,25.733 74.176,22.602 73.158,21.006 C72.058,19.281 70.293,18.029 68.792,17.417 C67.261,16.793 63.686,15.227 61.544,14.412 C62.672,16.359 61.399,20.165 60.58,22.971 C64.905,28.933 62.451,33.959 60.206,36.803 C58.617,38.816 56.635,40.823 53.704,41.531 C49.241,42.609 45.726,42.196 42.929,41.791 C40.447,41.432 39.245,39.195 37.903,36.063 C37.552,35.245 37.25,34.186 36.463,34.479 C32.642,33.258 32.058,30.686 31.824,28.582 C29.892,28.749 28.688,28.771 28.019,27.594 C27.859,27.313 27.729,26.965 27.628,26.534 C27.511,26.034 28.096,25.501 28.049,24.757 C27.814,21.062 28.136,19.99 27.769,20.453 C27.619,20.644 26.034,22.304 25.895,22.499 C23.999,25.182 23.253,28.281 22.74,30.564 C22.155,33.168 22.185,35.076 23.078,37.44 C23.438,38.395 23.905,39.41 24.582,40.598 C26.316,43.64 27.516,54.227 27.894,57.249 C28.405,61.343 29.173,62.418 31.172,64.544 C35.07,68.69 46.942,75.621 50.234,77.167 C54.118,78.99 56.982,80.15 59.743,77.631 C66.881,71.122 68.948,72.139 71.848,70.55 C75.221,68.704 76.622,66.544 76.809,64.512 C77.061,61.757 76.388,55.117 76.517,52.805 C77.566,53.514 79.661,55.292 80.085,55.519 C86.239,54.569 91.904,47.878 90.941,41.613" id="Fill-26" fill="#636463"></path>
                <path d="M60.031,125.169 C60.389,126.372 59.925,131.08 58.663,134.34 C57.24,138.016 58.015,139.75 57.825,142.913 C57.552,147.472 64.133,148.641 66.812,146.133 C71.591,141.659 74.342,135.708 75.06,130.582 C75.274,129.052 74.921,126.55 75.97,124.958 C77.591,122.5 77.737,117.694 75.416,114.382 C74.751,123.253 69.362,126.065 62.573,124.86 C61.738,124.711 60.632,124.856 60.031,125.169" id="Fill-27" fill="#58381F"></path>
                <path d="M165.931,103.101 C164.767,98.76 164.237,95.265 163.072,89.229 C162.162,84.51 156.93,81.816 153.197,80.602 C149.282,79.328 145.175,82.277 143.94,86.881 C142.327,92.895 143.176,101.576 147.189,108.611 C148.255,110.481 147.944,110.713 146.239,109.453 C142.595,106.759 138.862,100.792 138.152,92.465 C137.981,90.464 137.339,91.755 136.832,93.785 C134.408,103.476 129.371,110.531 129.121,117.857 C129.094,118.668 128.784,118.642 128.457,117.942 C122.96,106.178 123.928,100.067 124.139,92.77 C121.803,92.465 119.988,91.493 119.61,89.89 C118.937,87.485 118.135,89.192 116.661,88.028 C115.946,87.463 116.303,86.42 116.727,85.294 C117.076,84.373 117.534,82.886 116.273,81.819 C114.364,80.204 116.428,76.693 116.223,75.796 C115.847,74.154 114.668,74.324 115.116,72.433 C108.758,73.252 107.467,74.799 103.29,81.113 C97.517,89.839 98.146,87.011 94.228,93.471 C92.782,95.855 92.639,100.355 92.566,107.113 C92.514,111.938 92.326,117.83 92.061,121.375 C93.413,124.538 100.233,124.337 103.806,122.614 C104.403,122.327 105.543,121.191 105.536,119.608 C105.522,116.457 106.053,112.11 106.153,109.92 C106.254,107.768 106.149,104.856 107.295,104.38 C108.172,104.016 108.072,102.612 108.313,101.413 C108.841,98.766 107.731,96.802 111.141,94.091 C112.348,96.377 113.294,101.326 112.348,105.961 C112.068,107.327 112.135,109.773 113.077,112.908 C113.666,114.87 113.942,116.354 113.78,117.759 C113.161,123.137 116.737,127.68 124.078,131.949 C125.508,132.779 125.774,133.165 126.819,131.102 C127.685,129.389 128.758,126.126 128.983,124.851 C129.288,123.112 129.206,123.068 130.456,124.493 C132.131,126.405 135.406,135.187 135.972,136.467 C137.233,139.318 138.581,138.569 140.077,138.281 C141.834,137.942 147.36,136.852 148.988,136.248 C152.694,134.871 152.69,133.33 152.906,132.753 C153.859,130.212 153.541,127.987 153.965,125.34 C155.129,128.2 156.227,139.693 156.539,140.361 C157.803,143.054 165.162,145.183 169.776,140.368 C170.087,140.044 170.37,139.446 170.242,138.913 C166.635,123.924 168.392,112.274 165.931,103.101" id="Fill-28" fill="#2A67A3"></path>
                <path d="M127.122,173.28 C126.496,173.781 126.459,175.502 126.687,176.64 C126.973,178.07 126.863,179.298 126.299,179.811 C125.179,180.831 124.685,182.498 124.046,184.078 C122.97,186.742 121.897,189.604 121.064,191.316 C119.658,194.214 122.075,196.98 125.352,196.367 C129.321,195.624 132.596,193.466 134.692,188.743 C134.99,188.069 135.737,185.314 135.835,184.931 C136.131,183.785 138.123,183.597 138.218,178.261 C140.123,175.592 140.458,171.897 138.665,169.668 C138.268,178.726 129.76,177.516 127.122,173.28" id="Fill-29" fill="#636463"></path>
                <path d="M213.195,68.888 C210.111,71.776 210.345,79.364 210.991,82.888 C211.083,83.392 211.361,83.29 211.4,82.904 C211.885,78.079 212.428,76.31 213.735,74.569 C214.731,73.242 215.939,71.585 216.582,71.063 C217.224,70.542 213.195,68.888 213.195,68.888" id="Fill-30" fill="#716352"></path>
                <path d="M220.261,107.393 C221.874,111.787 222.411,115.529 222.599,118.722 C222.779,121.778 222.365,124.25 225.237,127.782 C226.073,128.809 229.512,132.74 230.732,134.149 C231.975,135.585 232.391,136.022 232.352,137.767 C232.205,144.312 232.679,149.851 236.449,152.499 C241.676,156.172 246.265,155.705 251.92,151.556 C253.616,150.313 255.196,148.111 255.338,143.153 C255.386,141.436 256.1,138.097 256.415,136.197 C257.319,130.747 258.606,127.018 260.377,124.051 C262.223,120.958 262.835,116.186 263.03,114.235 C261.27,117.929 258.602,121.075 254.607,122.045 C252.526,122.55 250.959,123.196 249.244,123.904 C246.805,124.911 242.167,124.72 238.441,122.075 C237.225,121.212 231.203,118.21 229.871,117.772 C223.068,115.539 223.034,111.683 220.261,107.393" id="Fill-31" fill="#BF9864"></path>
                <path d="M237.409,161.18 C236.013,162.057 236.809,163.469 236.599,164.903 C236.427,166.078 233.945,168.472 233.289,169.373 C231.294,172.112 229.928,173.337 228.013,176.215 C224.096,182.101 229.246,183.929 233.326,183.155 C239.009,182.078 241.709,178.48 243.648,175.729 C245.142,173.61 245.079,172.971 246.04,172.33 C248.097,170.959 248.683,170.066 248.683,168.302 C248.683,165.496 251.326,163.897 249.46,160.886 C248.168,165.633 245.67,167.531 241.133,166.641 C238.743,166.172 238.017,164.805 237.409,161.18" id="Fill-32" fill="#716352"></path>
                <path d="M240.901,66.993 C241.919,67.5 245.679,69.377 246.428,69.834 C245.538,70.703 243.463,73.03 242.147,74.966 C239.959,78.186 239.843,80.684 239.956,83.745 C240.057,86.416 241.892,91.045 242.974,93.114 C245.009,97.005 248.661,101.504 252.684,104.362 C253.617,105.026 253.63,104.513 253.245,104.015 C248.602,98.019 245.788,94.066 244.649,85.029 C243.854,78.725 248.176,74.854 250.459,72.388 C250.935,71.874 251.371,71.776 251.71,72.059 C252.05,72.341 254.614,72.878 256.509,74.015 C262.863,77.828 261.61,78.651 267.24,86.158 C271.053,91.241 275.237,96.066 276.802,100.006 C281.804,96.886 280.629,95.54 279.746,90.871 C279.582,90.003 280.315,88.271 280.757,87.004 C281.843,83.895 280.969,80.427 278.938,77.942 C278.13,76.951 278.193,76.429 279.866,75.966 C280.779,75.713 280.721,74.73 280.44,73.956 C278.644,68.999 273.151,62.345 268.978,61.058 C266.483,60.289 263.179,57.798 261.52,56.357 C260.17,55.185 258.346,55.133 256.365,55.309 C255.069,55.424 247.867,56.086 244.92,56.622" id="Fill-33" fill="#716352"></path>
                <path d="M51.402,30.04 C50.399,30.481 49.509,31.156 48.496,31.574 C46.22,32.514 43.408,31.969 41.648,30.246 C41.153,29.762 40.697,29.17 40.031,28.982 C39.501,28.833 38.94,28.971 38.396,29.05 C35.311,29.501 32.03,27.829 30.581,25.069 C30.106,24.162 29.816,23.162 29.31,22.271 C28.915,21.577 28.388,20.96 27.77,20.453 C28.503,22.916 26.903,26.172 27.992,27.625 C29.193,29.226 28.192,29.427 28.192,31.629 C28.192,33.831 28.793,33.732 30.295,33.631 C31.795,33.531 31.895,33.33 34.198,34.932 C36.501,36.534 39.504,36.834 41.607,36.233 C43.708,35.633 46.211,33.031 47.112,34.132 C48.012,35.233 48.714,36.033 50.515,35.132 C52.318,34.232 56.122,32.63 56.222,31.629 C56.287,30.979 56.061,30.48 55.892,30.193 C55.689,30.175 55.722,29.927 55.722,29.927 C55.722,29.927 55.8,30.038 55.892,30.193 C56.004,30.203 56.195,30.13 56.506,29.91 C54.859,29.326 53.003,29.338 51.402,30.04" id="Fill-34" fill="#875A38"></path>
                <path d="M89.595,27.441 C88.175,24.093 86.053,22.404 85.299,19.973 C86.948,20.18 87.375,18.58 86.87,18.016 C83.012,13.717 78.977,10.228 74.568,8.698 C73.16,8.21 72.059,7.28 70.738,6.041 C68.987,4.399 62.881,2.655 58.473,5.302 C58.281,5.417 58.073,5.491 57.889,5.623 C59.248,7.155 60.668,12.407 61.544,14.412 C61.829,14.52 62.186,14.667 62.513,14.798 C64.647,15.652 67.465,16.876 68.792,17.417 C70.293,18.029 72.058,19.281 73.158,21.006 C74.176,22.602 76.55,25.733 79.528,27.758 C80.027,28.098 81.459,28.981 83.412,31.973 C83.693,32.403 86.076,35.433 88.188,38.112 C89.291,33.133 90.557,29.709 89.595,27.441" id="Fill-35" fill="#2A67A3"></path>
                <path d="M89.595,27.441 C88.175,24.093 86.053,22.404 85.299,19.973 C86.948,20.18 87.375,18.58 86.87,18.016 C83.012,13.717 78.977,10.228 74.568,8.698 C73.16,8.21 72.059,7.28 70.738,6.041 C68.987,4.399 62.881,2.655 58.473,5.302 C58.281,5.417 58.073,5.491 57.889,5.623 C59.248,7.155 60.668,12.407 61.544,14.412 C61.829,14.52 62.186,14.667 62.513,14.798 C64.647,15.652 67.465,16.876 68.792,17.417 C70.293,18.029 72.058,19.281 73.158,21.006 C74.176,22.602 76.55,25.733 79.528,27.758 C80.027,28.098 81.459,28.981 83.412,31.973 C83.693,32.403 86.076,35.433 88.188,38.112 C89.291,33.133 90.557,29.709 89.595,27.441" id="Fill-36" fill="#1A1919"></path>
                <path d="M136.832,93.785 C137.086,92.77 137.372,91.94 137.618,91.613 L147.108,77.873 C147.108,77.873 145.928,74.692 139.843,72.707 C133.76,70.722 128.581,71.676 128.581,71.676 L122.081,72.433 L116.223,75.796 C116.428,76.693 114.364,80.204 116.273,81.819 C117.534,82.886 117.076,84.373 116.727,85.294 C116.303,86.42 115.946,87.463 116.661,88.028 C118.135,89.192 118.937,87.485 119.61,89.89 C119.988,91.493 121.803,92.465 124.139,92.77 C124.112,93.683 124.074,94.576 124.038,95.465 C124.038,95.465 127.29,99.81 136.832,93.785" id="Fill-37" fill="#E7BD9A"></path>
                <path d="M128.457,117.942 C128.784,118.642 129.094,118.668 129.121,117.857 C129.371,110.531 134.408,103.476 136.832,93.785 C127.29,99.81 124.038,95.465 124.038,95.465 C123.787,101.683 123.647,107.649 128.457,117.942" id="Fill-38" fill="#FFFFFE"></path>
                <path d="M116.223,75.796 C116.428,76.693 114.364,80.204 116.273,81.819 C117.534,82.886 117.075,84.373 116.727,85.294 C116.302,86.42 115.946,87.463 116.661,88.028 C118.135,89.192 118.937,87.485 119.61,89.89 C119.988,91.493 121.803,92.466 124.138,92.77 C128.357,91.538 132.268,89.733 133.908,88.519 C135.547,87.305 138.368,83.434 139.321,81.051 C140.275,78.667 141.705,75.796 141.705,75.796 C141.705,75.796 135.884,74.042 135.14,73.733 C134.396,73.423 132.07,74.723 131.167,74.55 C130.264,74.377 116.223,75.796 116.223,75.796" id="Fill-39" fill="#E7BD9A"></path>
                <path d="M149.011,77.867 C149.011,77.867 143.427,73.043 139.843,72.707 C136.26,72.371 139.156,76.039 139.156,76.039 L140.57,87.275 L149.011,77.867" id="Fill-40" fill="#636463"></path>
                <path d="M143.199,74.1 C144.232,72.465 143.516,71.056 143.458,70.314 C143.291,68.229 145.263,70.15 146.679,70.492 C148.554,70.946 150.44,69.071 151.343,67.988 C152.247,66.903 153.431,64.599 152.466,61.683 C150.824,56.728 150.556,58.464 148.388,56.476 C146.219,54.488 141.621,54.126 139.511,54.687 C135.803,55.673 133.644,58.786 134.185,60.955 C134.727,63.123 133.595,62.322 132.892,61.925 C130.413,60.523 128.881,61.421 126.531,61.601 C124.182,61.782 120.537,63.056 118.37,65.405 C116.2,67.754 116.129,69.262 115.582,70.909 C115.355,71.596 115.216,72.074 115.113,72.477 C114.701,74.309 115.419,76.096 115.814,77.716 C116.311,79.755 123.738,83.228 125.815,83.228 C127.892,83.228 131.731,80.421 132.012,81.368 C132.857,84.218 133.908,81.051 134.74,78.457 C135.379,76.464 138.219,75.809 138.894,77.99 C139.569,80.171 139.171,81.095 140.92,79.703 C143.822,77.394 143.199,74.1 143.199,74.1" id="Fill-41" fill="#875A38"></path>
                <path d="M130.157,96.735 C135.537,94.557 136.637,91.135 137.397,88.703 C138.158,86.27 141.705,87.275 141.705,87.275 L138.286,90.353 L137.618,91.613 L136.415,95.33 L132.7,96.98 L130.157,96.735" id="Fill-42" fill="#FFFFFE"></path>
                <path d="M148.023,76.056 L151.281,77.528 C152.863,78.45 152.897,80.111 153.197,80.602 C149.282,79.328 145.175,82.277 143.94,86.881 C142.327,92.895 143.176,101.576 147.189,108.611 C148.255,110.481 147.944,110.713 146.239,109.453 C142.595,106.759 138.946,100.785 138.152,92.465 C137.39,84.485 138.983,83.215 141.705,79.817 C144.427,76.419 145.835,75.933 148.023,76.056" id="Fill-43" fill="#BF9864"></path>
                <path d="M240.313,67.611 C239.536,68.384 238.95,69.335 238.156,70.09 C236.373,71.788 233.553,72.294 231.29,71.322 C230.654,71.049 230.015,70.661 229.326,70.727 C228.778,70.779 228.305,71.11 227.825,71.38 C225.111,72.914 221.448,72.538 219.101,70.486 C218.33,69.811 217.699,68.984 216.906,68.336 C216.287,67.83 215.573,67.445 214.813,67.195 C216.386,69.228 216.068,72.842 217.608,73.804 C219.306,74.864 218.445,75.412 219.239,77.466 C220.034,79.52 220.558,79.211 221.922,78.575 C223.286,77.94 223.307,77.717 226.033,78.38 C228.758,79.044 231.667,78.24 233.412,76.921 C235.155,75.603 236.55,72.273 237.788,72.975 C239.025,73.677 239.969,74.171 241.323,72.68 C242.679,71.19 245.65,68.324 245.381,67.355 C245.207,66.725 244.817,66.34 244.556,66.134 C244.36,66.191 244.301,65.948 244.301,65.948 C244.301,65.948 244.414,66.023 244.556,66.134 C244.663,66.103 244.816,65.966 245.026,65.649 C243.28,65.698 241.553,66.379 240.313,67.611" id="Fill-44" fill="#E7BD9A"></path>
                <path d="M241.013,44.495 C238.614,41.914 236.375,41.322 232.549,40.834 C229.7,40.47 225.722,41.18 222.451,42.085 C220.495,42.625 217.966,45.237 217.161,46.398 C215.756,48.424 213.734,51.54 215.077,56.918 C214.864,57.092 211.551,59.552 210.168,62.238 C209.387,63.752 209.733,65.926 210.819,67.284 C211.885,68.616 213.02,69.639 214.299,70.524 C214.299,70.524 218.637,75.586 225.889,73.685 C230.053,72.593 232.691,72.027 234.217,71.734 C234.671,71.7 235.107,71.623 235.545,71.497 C235.751,71.465 235.884,71.447 235.858,71.394 C236.702,71.106 237.507,70.708 238.155,70.09 C239.833,68.493 241.845,66.891 243.188,64.891 C244.922,62.308 244.782,59.61 244.92,56.622 C244.965,49.112 244.489,48.235 241.013,44.495" id="Fill-45" fill="#636463"></path>
                <path d="M200.984,117.927 C202.996,116.286 202.561,115.354 202.514,113.87 C202.493,113.193 202.388,112.753 202.254,112.382 C201.967,111.584 201.507,111.166 201.14,110.097 L201.086,110.071 C198.259,109.84 195.433,109.609 192.606,109.378 L192.557,109.377 L192.652,109.423 C192.852,109.494 192.453,110.766 192.077,111.809 C191.906,112.286 191.738,112.719 191.636,112.96 C191.13,114.157 191.101,117.056 191.498,117.703 C192.152,118.769 193.732,120.647 195.707,121.179 C197.239,121.591 197.474,121.544 198.833,121.996 C201.718,122.958 201.665,120.751 200.758,119.675 C199.877,118.627 200.235,118.634 200.984,117.927" id="Fill-46" fill="#E7BD9A"></path>
                <path d="M283.558,130.582 C283.51,130.375 283.45,130.097 283.388,129.797 C283.1,128.422 282.7,126.343 282.574,125.948 C282.44,125.526 282.323,125.204 282.624,124.871 L282.585,124.865 C281.927,125.693 280.857,126.063 279.833,126.339 C277.769,126.897 275.654,127.268 273.523,127.446 C273.135,127.478 272.738,127.522 272.346,127.585 L272.363,127.59 C272.228,127.921 272.023,128.331 271.79,128.718 C271.53,129.148 271.237,129.551 270.952,129.788 C270.412,130.238 269.946,131.006 270.14,132.357 C270.207,132.815 270.263,134.29 270.589,135.919 C270.919,137.569 272.705,137.341 273.2,137.474 C273.263,138.018 273.351,138.385 273.124,139.163 C272.488,141.334 273.669,141.758 274.578,141.423 C275.31,141.152 276.425,140.502 277.071,140.211 C277.719,139.922 278.848,139.115 279.371,138.58 C280.234,137.694 282.651,134.953 283.242,134.238 C283.834,133.521 283.876,131.959 283.558,130.582" id="Fill-47" fill="#E7BD9A"></path>
            </g>
        </g>
    </g>
</svg>