<?xml version="1.0" encoding="UTF-8"?>
<svg width="39px" height="39px" viewBox="0 0 39 39" version="1.1" xmlns="http://www.w3.org/2000/svg" xmlns:xlink="http://www.w3.org/1999/xlink">
    <!-- Generator: Sketch 52 (66869) - http://www.bohemiancoding.com/sketch -->
    <title>Instagram-White</title>
    <desc>Created with Sketch.</desc>
    <g id="Page-1" stroke="none" stroke-width="1" fill="none" fill-rule="evenodd">
        <g id="Artboard" transform="translate(-188.000000, -47.000000)" fill="#FFFFFF">
            <g id="Instagram-White" transform="translate(188.000000, 47.000000)">
                <g id="Instagram">
                    <path d="M0,19.5 C0,8.73044685 8.73044685,0 19.5,0 C30.2695532,0 39,8.73044685 39,19.5 C39,30.2695532 30.2695532,39 19.5,39 C8.73044685,39 0,30.2695532 0,19.5 Z M19.500975,9.1 C16.6764789,9.1 16.3220086,9.11235013 15.2126637,9.16283399 C14.1054855,9.21353452 13.3497443,9.38881968 12.6884707,9.64600569 C12.0044469,9.91164179 11.4242075,10.2669788 10.8461349,10.8452682 C10.2676288,11.4233409 9.91229179,12.0035802 9.64578902,12.6873874 C9.387953,13.3488776 9.21245117,14.1048355 9.16261732,15.2115803 C9.11300014,16.3209252 9.1,16.6756122 9.1,19.5001083 C9.1,22.3246044 9.1125668,22.6779914 9.16283399,23.7873363 C9.21375118,24.8945145 9.38903634,25.6502557 9.64600569,26.3115293 C9.91185846,26.9955531 10.2671955,27.5757925 10.8454848,28.1538651 C11.4233409,28.7323712 12.0035802,29.0885749 12.6871707,29.354211 C13.3488776,29.611397 14.1048355,29.7866822 15.211797,29.8373827 C16.3211419,29.8878665 16.6753956,29.9002167 19.499675,29.9002167 C22.3243878,29.9002167 22.6777748,29.8878665 23.7871197,29.8373827 C24.8942979,29.7866822 25.6509057,29.611397 26.3126126,29.354211 C26.9964198,29.0885749 27.5757925,28.7323712 28.1536485,28.1538651 C28.7321545,27.5757925 29.0874915,26.9955531 29.3539943,26.311746 C29.6096636,25.6502557 29.7851655,24.8942979 29.837166,23.787553 C29.8869999,22.6782081 29.9,22.3246044 29.9,19.5001083 C29.9,16.6756122 29.8869999,16.3211419 29.837166,15.211797 C29.7851655,14.1046188 29.6096636,13.3488776 29.3539943,12.687604 C29.0874915,12.0035802 28.7321545,11.4233409 28.1536485,10.8452682 C27.5751424,10.2667622 26.9966364,9.91142512 26.3119626,9.64600569 C25.6489557,9.38881968 24.8927812,9.21353452 23.785603,9.16283399 C22.6762581,9.11235013 22.3230877,9.1 19.497725,9.1 L19.500975,9.1 Z" id="Combined-Shape"></path>
                    <path d="M18.5679986,10.9741862 C18.8449015,10.9737529 19.1538714,10.9741862 19.500975,10.9741862 C22.2778039,10.9741862 22.606924,10.984153 23.7034855,11.0339868 C24.717496,11.080354 25.2678351,11.2497891 25.6344389,11.3921405 C26.1197773,11.5806425 26.4657976,11.8059782 26.8295847,12.169982 C27.1935885,12.5339858 27.4189242,12.880656 27.6078595,13.3659944 C27.7502109,13.7321649 27.9198627,14.282504 27.9660132,15.2965145 C28.015847,16.3928593 28.0266805,16.7221961 28.0266805,19.497725 C28.0266805,22.2732539 28.015847,22.6025907 27.9660132,23.6989354 C27.919646,24.712946 27.7502109,25.263285 27.6078595,25.6294555 C27.4193575,26.1147939 27.1935885,26.4603808 26.8295847,26.824168 C26.4655809,27.1881718 26.119994,27.4135074 25.6344389,27.6020094 C25.2682684,27.7450109 24.717496,27.9140126 23.7034855,27.9603798 C22.6071407,28.0102136 22.2778039,28.0210471 19.500975,28.0210471 C16.7239294,28.0210471 16.3948093,28.0102136 15.2984646,27.9603798 C14.284454,27.9135793 13.7341149,27.7441442 13.3672945,27.6017927 C12.8819561,27.4132908 12.5352858,27.1879551 12.171282,26.8239513 C11.8072782,26.4599475 11.5819425,26.1141439 11.3930072,25.6285888 C11.2506557,25.2624184 11.081004,24.7120793 11.0348535,23.6980687 C10.9850196,22.601724 10.9750529,22.2723872 10.9750529,19.4951249 C10.9750529,16.7178627 10.9850196,16.3902593 11.0348535,15.2939145 C11.0812206,14.279904 11.2506557,13.7295649 11.3930072,13.3629611 C11.5815092,12.8776227 11.8072782,12.5309524 12.171282,12.1669486 C12.5352858,11.8029448 12.8819561,11.5776091 13.3672945,11.3886738 C13.7338983,11.2456724 14.284454,11.0766706 15.2984646,11.0300868 C16.2578746,10.986753 16.6296784,10.9737529 18.5679986,10.9715862 L18.5679986,10.9741862 Z M25.0524662,12.7010375 C24.363459,12.7010375 23.8044532,13.2593933 23.8044532,13.9486172 C23.8044532,14.6376244 24.363459,15.1966302 25.0524662,15.1966302 C25.7414733,15.1966302 26.3004792,14.6376244 26.3004792,13.9486172 C26.3004792,13.25961 25.7414733,12.7006042 25.0524662,12.7006042 L25.0524662,12.7010375 Z M19.500975,14.1592194 C16.551461,14.1592194 14.160086,16.5505943 14.160086,19.5001083 C14.160086,22.4496224 16.551461,24.839914 19.500975,24.839914 C22.4504891,24.839914 24.8409973,22.4496224 24.8409973,19.5001083 C24.8409973,16.5505943 22.4502724,14.1592194 19.5007583,14.1592194 L19.500975,14.1592194 Z" id="Combined-Shape"></path>
                    <path d="M19.500975,16.0334056 C21.4154616,16.0334056 22.9676778,17.5854051 22.9676778,19.5001083 C22.9676778,21.4145949 21.4154616,22.9668111 19.500975,22.9668111 C17.5862717,22.9668111 16.0342722,21.4145949 16.0342722,19.5001083 C16.0342722,17.5854051 17.5862717,16.0334056 19.500975,16.0334056 L19.500975,16.0334056 Z" id="Shape"></path>
                </g>
            </g>
        </g>
    </g>
</svg>