<?xml version="1.0" encoding="UTF-8"?>
<svg width="154px" height="308px" viewBox="0 0 154 308" version="1.1" xmlns="http://www.w3.org/2000/svg" xmlns:xlink="http://www.w3.org/1999/xlink">
    <!-- Generator: Sketch 52 (66869) - http://www.bohemiancoding.com/sketch -->
    <title>Artboard</title>
    <desc>Created with Sketch.</desc>
    <g id="Artboard" stroke="none" stroke-width="1" fill="none" fill-rule="evenodd">
        <path id="Path" d="M147.401029,66.0505467 L127.1185,55.0117677 L129.508685,50.6200691 L153.694946,63.7834566 L157.598678,65.9080652 L153.755828,68.140909 L129.946774,81.9748864 L127.434825,77.6516803 L147.401029,66.0505467 Z M0.581402866,164.137114 L-0.581402866,159.274205 C3.50038893,158.298178 7.34536606,157.309781 10.9532884,156.309168 L12.2895388,161.127304 C8.62236445,162.14435 4.71973252,163.147568 0.581402866,164.137114 Z M21.0094313,158.542346 L19.4948236,153.777269 C23.5929439,152.474657 27.3016528,151.153328 30.6198547,149.814354 L32.4908859,154.451081 C29.049862,155.839617 25.2230757,157.203015 21.0094313,158.542346 Z M40.8996665,150.611872 L38.5820324,146.181458 C41.6513687,144.575829 44.1632957,142.956406 46.115247,141.334332 C46.743629,140.811974 47.365787,140.281524 47.9855497,139.739912 L51.2757306,143.504844 C50.6251548,144.073383 49.9716907,144.630525 49.311184,145.179587 C47.0659236,147.045401 44.2628364,148.852534 40.8996665,150.611872 Z M57.9502885,137.175254 L54.3734539,133.681509 C57.0286098,130.963207 59.6358412,128.04305 62.2399028,124.892834 L66.0936847,128.078483 C63.4048622,131.331237 60.7061911,134.353809 57.9502885,137.175254 Z M71.7357068,120.908047 L67.7397998,117.902597 C69.9638379,114.945619 72.1788472,111.855519 74.6893963,108.236683 L78.7975919,111.086724 C76.2533166,114.754174 74.0025651,117.894137 71.7357068,120.908047 Z M83.8926516,103.654005 L79.7631004,100.834996 C82.9984195,96.0955932 84.8187194,93.4895329 86.7169145,90.9332321 L90.7312134,93.9140716 C88.8844501,96.4011093 87.0919022,98.967438 83.8926516,103.654005 Z M96.2513485,87.2138322 L92.6453883,83.7501563 C92.8048164,83.584179 92.9634584,83.4216707 93.1214149,83.262557 C95.9696999,80.3935219 98.9162079,77.8229715 101.961601,75.5514974 L104.951003,79.5594246 C102.106997,81.6806888 99.3467245,84.0887666 96.6697929,86.7851999 C96.5313976,86.9246092 96.3919288,87.067477 96.2513485,87.2138322 Z M112.222435,74.8602481 L109.808187,70.4817318 C113.510729,68.4402057 117.342025,66.7995004 121.300006,65.5610654 L122.793101,70.3329275 C119.156233,71.4708876 115.633367,72.9795114 112.222435,74.8602481 Z M130.874393,68.7817006 L130.80454,63.7821886 L142.803369,63.6145411 L142.873222,68.6140531 L130.874393,68.7817006 Z" fill="#000000" fill-rule="nonzero"></path>
    </g>
</svg>