<?xml version="1.0" encoding="UTF-8"?>
<svg width="154px" height="308px" viewBox="0 0 154 308" version="1.1" xmlns="http://www.w3.org/2000/svg" xmlns:xlink="http://www.w3.org/1999/xlink">
    <!-- Generator: Sketch 52 (66869) - http://www.bohemiancoding.com/sketch -->
    <title>Artboard</title>
    <desc>Created with Sketch.</desc>
    <g id="Artboard" stroke="none" stroke-width="1" fill="none" fill-rule="evenodd">
        <path id="Path" d="M144.888333,64.6830105 C145.165412,65.0791074 145.330789,65.5596055 145.338051,66.0793706 C145.345314,66.5991356 145.193426,67.0840665 144.927521,67.48775 L147.401029,66.0505467 L144.888333,64.6830105 Z M142.927515,63.6158341 L127.1185,55.0117677 C125.905766,54.3517365 125.457712,52.8335602 126.117743,51.6208261 C126.777774,50.408092 128.295951,49.9600378 129.508685,50.6200691 L153.694946,63.7834566 L157.598678,65.9080652 L153.755828,68.140909 L129.946774,81.9748864 C128.752953,82.6685421 127.222852,82.2630784 126.529196,81.069258 C125.835541,79.8754376 126.241004,78.3453359 127.434825,77.6516803 L142.997284,68.6092922 C142.956197,68.6118768 142.914835,68.6134717 142.873222,68.6140531 L130.874393,68.7817006 C129.493816,68.80099 128.359,67.6974483 128.339711,66.3168711 C128.320421,64.936294 129.423963,63.801478 130.80454,63.7821886 L142.803369,63.6145411 C142.844982,63.6139597 142.886372,63.6143984 142.927515,63.6158341 Z M0.581402866,164.137114 C-0.761452343,164.458214 -2.11035451,163.629918 -2.43145444,162.287063 C-2.75255438,160.944208 -1.92425807,159.595305 -0.581402866,159.274205 C3.50038893,158.298178 7.34536606,157.309781 10.9532884,156.309168 C12.28378,155.940173 13.6614863,156.71962 14.0304816,158.050111 C14.399477,159.380603 13.6200303,160.758309 12.2895388,161.127304 C8.62236445,162.14435 4.71973252,163.147568 0.581402866,164.137114 Z M21.0094313,158.542346 C19.6935915,158.960593 18.2878361,158.232951 17.8695887,156.917111 C17.4513413,155.601271 18.1789838,154.195516 19.4948236,153.777269 C23.5929439,152.474657 27.3016528,151.153328 30.6198547,149.814354 C31.9002516,149.297683 33.357063,149.916805 33.8737341,151.197202 C34.3904051,152.477599 33.7712829,153.93441 32.4908859,154.451081 C29.049862,155.839617 25.2230757,157.203015 21.0094313,158.542346 Z M40.8996665,150.611872 C39.6762414,151.251869 38.1656393,150.778907 37.5256423,149.555482 C36.8856453,148.332057 37.3586073,146.821455 38.5820324,146.181458 C41.6513687,144.575829 44.1632957,142.956406 46.115247,141.334332 C46.743629,140.811974 47.365787,140.281524 47.9855497,139.739912 C49.0252068,138.831354 50.6045475,138.93763 51.5131059,139.977287 C52.4216643,141.016945 52.3153877,142.596285 51.2757306,143.504844 C50.6251548,144.073383 49.9716907,144.630525 49.311184,145.179587 C47.0659236,147.045401 44.2628364,148.852534 40.8996665,150.611872 Z M57.9502885,137.175254 C56.9855175,138.162969 55.4027143,138.181569 54.4149987,137.216798 C53.4272831,136.252027 53.4086829,134.669224 54.3734539,133.681509 C57.0286098,130.963207 59.6358412,128.04305 62.2399028,124.892834 C63.1195957,123.828641 64.6954262,123.679075 65.7596187,124.558768 C66.8238112,125.43846 66.9733776,127.014291 66.0936847,128.078483 C63.4048622,131.331237 60.7061911,134.353809 57.9502885,137.175254 Z M71.7357068,120.908047 C70.9057747,122.011486 69.3384677,122.233208 68.2350284,121.403276 C67.1315892,120.573344 66.9098678,119.006036 67.7397998,117.902597 C69.9638379,114.945619 72.1788472,111.855519 74.6893963,108.236683 C75.4764131,107.102237 77.0340672,106.820589 78.1685141,107.607606 C79.302961,108.394622 79.5846088,109.952277 78.7975919,111.086724 C76.2533166,114.754174 74.0025651,117.894137 71.7357068,120.908047 Z M83.8926516,103.654005 C83.114204,104.794349 81.558716,105.087724 80.4183719,104.309276 C79.2780278,103.530828 78.9846528,101.975341 79.7631004,100.834996 C82.9984195,96.0955932 84.8187194,93.4895329 86.7169145,90.9332321 C87.5400507,89.8247141 89.1059657,89.5933663 90.2144838,90.4165024 C91.3230018,91.2396385 91.5543495,92.8055536 90.7312134,93.9140716 C88.8844501,96.4011093 87.0919022,98.967438 83.8926516,103.654005 Z M96.2513485,87.2138322 C95.2948808,88.2095906 93.7122888,88.2414421 92.7165304,87.2849744 C91.720772,86.3285067 91.6889206,84.7459147 92.6453883,83.7501563 C92.8048164,83.584179 92.9634584,83.4216707 93.1214149,83.262557 C95.9696999,80.3935219 98.9162079,77.8229715 101.961601,75.5514974 C103.06836,74.725997 104.634765,74.9540019 105.460266,76.0607604 C106.285766,77.167519 106.057761,78.7339243 104.951003,79.5594246 C102.106997,81.6806888 99.3467245,84.0887666 96.6697929,86.7851999 C96.5313976,86.9246092 96.3919288,87.067477 96.2513485,87.2138322 Z M112.222435,74.8602481 C111.013342,75.5269244 109.492729,75.087208 108.826053,73.8781141 C108.159377,72.6690203 108.599093,71.1484081 109.808187,70.4817318 C113.510729,68.4402057 117.342025,66.7995004 121.300006,65.5610654 C122.61772,65.1487586 124.020178,65.8827357 124.432485,67.200449 C124.844791,68.5181624 124.110814,69.9206208 122.793101,70.3329275 C119.156233,71.4708876 115.633367,72.9795114 112.222435,74.8602481 Z" fill="#000000" fill-rule="nonzero"></path>
    </g>
</svg>