<?xml version="1.0" encoding="UTF-8"?>
<svg width="20px" height="20px" viewBox="0 0 20 20" version="1.1" xmlns="http://www.w3.org/2000/svg" xmlns:xlink="http://www.w3.org/1999/xlink">
    <!-- Generator: Sketch 52 (66869) - http://www.bohemiancoding.com/sketch -->
    <title>In-Black-0p5in-R</title>
    <desc>Created with Sketch.</desc>
    <defs>
        <polygon id="path-1" points="0 0 23.4827778 0 23.4827778 19.9666667 0 19.9666667"></polygon>
    </defs>
    <g id="In-Black-0p5in-R" stroke="none" stroke-width="1" fill="none" fill-rule="evenodd">
        <g id="Group-5">
            <mask id="mask-2" fill="white">
                <use xlink:href="#path-1"></use>
            </mask>
            <g id="Clip-3"></g>
            <path d="M17.0427778,17.0422222 L14.0766667,17.0422222 L14.0766667,12.4005556 C14.0766667,11.2938889 14.0577778,9.87 12.5355556,9.87 C10.9916667,9.87 10.7561111,11.0761111 10.7561111,12.3216667 L10.7561111,17.0422222 L7.79333333,17.0422222 L7.79333333,7.49777778 L10.6366667,7.49777778 L10.6366667,8.80277778 L10.6777778,8.80277778 C11.0733333,8.05222222 12.0411111,7.26111111 13.4838889,7.26111111 C16.4877778,7.26111111 17.0427778,9.23722222 17.0427778,11.8077778 L17.0427778,17.0422222 Z M4.44888889,6.19388889 C3.49611111,6.19388889 2.72777778,5.42333333 2.72777778,4.47333333 C2.72777778,3.52388889 3.49611111,2.75333333 4.44888889,2.75333333 C5.39777778,2.75333333 6.16777778,3.52388889 6.16777778,4.47333333 C6.16777778,5.42333333 5.39777778,6.19388889 4.44888889,6.19388889 Z M2.96333333,17.0422222 L5.93277778,17.0422222 L5.93277778,7.49777778 L2.96333333,7.49777778 L2.96333333,17.0422222 Z M18.52,0 L1.475,0 C0.661111111,0 0,0.645555556 0,1.44222222 L0,18.5566667 C0,19.3533333 0.661111111,20 1.475,20 L18.52,20 C19.3355556,20 19.9994444,19.3533333 19.9994444,18.5566667 L19.9994444,1.44222222 C19.9994444,0.645555556 19.3355556,0 18.52,0 Z" id="Fill-4" fill="white" mask="url(#mask-2)"></path>
        </g>
    </g>
</svg>