<?xml version="1.0" encoding="UTF-8"?>
<svg width="39px" height="39px" viewBox="0 0 39 39" version="1.1" xmlns="http://www.w3.org/2000/svg" xmlns:xlink="http://www.w3.org/1999/xlink">
    <!-- Generator: Sketch 52 (66869) - http://www.bohemiancoding.com/sketch -->
    <title>LinkedIN-White</title>
    <desc>Created with Sketch.</desc>
    <g id="Page-1" stroke="none" stroke-width="1" fill="none" fill-rule="evenodd">
        <g id="Artboard" transform="translate(-138.000000, -47.000000)" fill="#FFFFFF">
            <g id="LinkedIN-White" transform="translate(138.000000, 47.000000)">
                <g id="LinkedIN">
                    <path d="M0,19.5 C0,8.73044685 8.73044685,0 19.5,0 C30.2695532,0 39,8.73044685 39,19.5 C39,30.2695532 30.2695532,39 19.5,39 C8.73044685,39 0,30.2695532 0,19.5 Z M13.7804403,16.1507518 L9.36131392,16.1507518 L9.36131392,29.4283923 L13.7804403,29.4283923 L13.7804403,16.1507518 Z M14.0714952,12.0434419 C14.0428133,10.7415776 13.1118438,9.75 11.6000885,9.75 C10.0883332,9.75 9.1,10.7415776 9.1,12.0434419 C9.1,13.31834 10.0591218,14.33847 11.5427248,14.33847 L11.5709654,14.33847 C13.1118438,14.33847 14.0714952,13.31834 14.0714952,12.0434419 Z M29.7175008,21.815399 C29.7175008,17.7370821 27.5374137,15.838967 24.6294249,15.838967 C22.2831594,15.838967 21.2326969,17.1277007 20.6461746,18.0317707 L20.6461746,16.1511043 L16.2265187,16.1511043 C16.284765,17.3970094 16.2265187,29.4287448 16.2265187,29.4287448 L20.6461746,29.4287448 L20.6461746,22.0134149 C20.6461746,21.61659 20.6748565,21.2207344 20.791702,20.9366208 C21.1110857,20.1438522 21.8382815,19.32306 23.0591585,19.32306 C24.658901,19.32306 25.2983744,20.540589 25.2983744,22.3248471 L25.2983744,29.4283923 L29.7173243,29.4283923 L29.7175008,21.815399 Z" id="Combined-Shape"></path>
                </g>
            </g>
        </g>
    </g>
</svg>