<?xml version="1.0" encoding="UTF-8"?>
<svg width="117px" height="20px" viewBox="0 0 117 20" version="1.1" xmlns="http://www.w3.org/2000/svg" xmlns:xlink="http://www.w3.org/1999/xlink">
    <!-- Generator: Sketch 52.4 (67378) - http://www.bohemiancoding.com/sketch -->
    <title>Living Streets</title>
    <desc>Created with Sketch.</desc>
    <g id="Design" stroke="none" stroke-width="1" fill="none" fill-rule="evenodd">
        <path d="M2.85546875,13.2001953 L9.06201172,13.2001953 L9.06201172,15 L0.601074219,15 L0.601074219,1.4921875 L2.85546875,1.4921875 L2.85546875,13.2001953 Z M12.9956055,15 L10.7412109,15 L10.7412109,4.96191406 L12.9956055,4.96191406 L12.9956055,15 Z M12.9956055,2.50341797 L10.7412109,2.50341797 L10.7412109,0.52734375 L12.9956055,0.52734375 L12.9956055,2.50341797 Z M19.0073242,11.6044922 L19.1743164,12.4208984 L19.2299805,12.4208984 L19.40625,11.6044922 L21.4008789,4.96191406 L23.7294922,4.96191406 L20.1669922,15 L18.2094727,15 L14.628418,4.96191406 L16.9570312,4.96191406 L19.0073242,11.6044922 Z M27.5517578,15 L25.2973633,15 L25.2973633,4.96191406 L27.5517578,4.96191406 L27.5517578,15 Z M27.5517578,2.50341797 L25.2973633,2.50341797 L25.2973633,0.52734375 L27.5517578,0.52734375 L27.5517578,2.50341797 Z M32.1162109,4.96191406 L32.2460938,6.40917969 C32.5738949,5.89583077 32.9867325,5.49536277 33.4846191,5.20776367 C33.9825057,4.92016458 34.5437794,4.77636719 35.168457,4.77636719 C36.2137097,4.77636719 37.0285615,5.09333993 37.6130371,5.72729492 C38.1975127,6.36124991 38.4897461,7.34927714 38.4897461,8.69140625 L38.4897461,15 L36.2353516,15 L36.2353516,8.70996094 C36.2353516,7.95539987 36.0791845,7.41886552 35.7668457,7.1003418 C35.4545069,6.78181807 34.9798209,6.62255859 34.3427734,6.62255859 C33.9036436,6.62255859 33.5109067,6.71996973 33.1645508,6.91479492 C32.8181949,7.10962011 32.5336925,7.37711418 32.3110352,7.71728516 L32.3110352,15 L30.0566406,15 L30.0566406,4.96191406 L32.1162109,4.96191406 Z M40.4287109,10.1201172 C40.4287109,8.52440608 40.7781541,7.2348682 41.4770508,6.25146484 C42.1759475,5.26806149 43.1469664,4.77636719 44.3901367,4.77636719 C44.9900746,4.77636719 45.5173317,4.90470249 45.9719238,5.16137695 C46.4265159,5.41805141 46.8115219,5.78759524 47.1269531,6.27001953 L47.3496094,4.96191406 L49.2236328,4.96191406 L49.2236328,15 C49.2236328,16.2926497 48.824711,17.2915004 48.0268555,17.996582 C47.2289999,18.7016637 46.0971753,19.0541992 44.6313477,19.0541992 C44.1427384,19.0541992 43.6154813,18.9846198 43.0495605,18.845459 C42.4836397,18.7062981 41.9718447,18.5222993 41.5141602,18.293457 L41.996582,16.5214844 C42.3676776,16.7132171 42.7774229,16.8631993 43.2258301,16.9714355 C43.6742373,17.0796718 44.1365536,17.1337891 44.612793,17.1337891 C45.4292033,17.1337891 46.0260398,16.9590675 46.4033203,16.6096191 C46.7806008,16.2601708 46.9692383,15.7236364 46.9692383,15 L46.9692383,13.9702148 C46.653807,14.3722351 46.2811708,14.6768382 45.8513184,14.8840332 C45.4214659,15.0912282 44.9282254,15.1948242 44.371582,15.1948242 C43.1407816,15.1948242 42.1759475,14.7464238 41.4770508,13.8496094 C40.7781541,12.952795 40.4287109,11.7745841 40.4287109,10.3149414 L40.4287109,10.1201172 Z M42.6831055,10.3149414 C42.6831055,11.2364955 42.8671043,11.9740369 43.2351074,12.5275879 C43.6031106,13.0811388 44.1736615,13.3579102 44.9467773,13.3579102 C45.4292016,13.3579102 45.8358545,13.2574066 46.166748,13.0563965 C46.4976416,12.8553864 46.7651357,12.5662454 46.9692383,12.1889648 L46.9692383,7.79150391 C46.7589508,7.42659323 46.4883643,7.14054466 46.1574707,6.93334961 C45.8265771,6.72615456 45.4292015,6.62255859 44.965332,6.62255859 C44.1922162,6.62255859 43.6185728,6.94726238 43.2443848,7.59667969 C42.8701967,8.246097 42.6831055,9.08723442 42.6831055,10.1201172 L42.6831055,10.3149414 Z M63.9375,11.5302734 C63.9375,10.9674451 63.7287619,10.506675 63.3112793,10.1479492 C62.8937967,9.78922347 62.1562553,9.4676121 61.0986328,9.18310547 C59.5895107,8.78727016 58.4283081,8.26310548 57.6149902,7.6105957 C56.8016724,6.95808593 56.3950195,6.10303263 56.3950195,5.04541016 C56.3950195,3.95686305 56.8449662,3.06006212 57.744873,2.35498047 C58.6447799,1.64989882 59.8059825,1.29736328 61.2285156,1.29736328 C62.712898,1.29736328 63.9050248,1.69628507 64.8049316,2.49414062 C65.7048385,3.29199618 66.1393231,4.25064544 66.1083984,5.37011719 L66.0898438,5.42578125 L63.9282227,5.42578125 C63.9282227,4.73306945 63.693199,4.17179577 63.2231445,3.74194336 C62.7530901,3.31209095 62.0820356,3.09716797 61.2099609,3.09716797 C60.3873657,3.09716797 59.7549664,3.27652815 59.3127441,3.63525391 C58.8705219,3.99397966 58.6494141,4.45784221 58.6494141,5.02685547 C58.6494141,5.54020439 58.8890764,5.96695793 59.3684082,6.30712891 C59.84774,6.64729988 60.640945,6.96891125 61.7480469,7.27197266 C63.2015047,7.66162304 64.3054975,8.1997036 65.0600586,8.88623047 C65.8146197,9.57275734 66.1918945,10.4479113 66.1918945,11.5117188 C66.1918945,12.6373754 65.7419479,13.5326301 64.842041,14.1975098 C63.9421342,14.8623894 62.7592847,15.1948242 61.293457,15.1948242 C59.8832937,15.1948242 58.6463269,14.822188 57.5825195,14.0769043 C56.5187121,13.3316206 56.0022785,12.3095768 56.0332031,11.0107422 L56.0517578,10.9550781 L58.2226562,10.9550781 C58.2226562,11.7776734 58.5071586,12.3915182 59.0761719,12.7966309 C59.6451851,13.2017436 60.3842728,13.4042969 61.293457,13.4042969 C62.1284221,13.4042969 62.7778297,13.2357601 63.2416992,12.8986816 C63.7055687,12.5616031 63.9375,12.1054716 63.9375,11.5302734 Z M71.0810547,2.52197266 L71.0810547,4.96191406 L72.8808594,4.96191406 L72.8808594,6.63183594 L71.0810547,6.63183594 L71.0810547,12.1796875 C71.0810547,12.5940776 71.1707348,12.8894034 71.3500977,13.0656738 C71.5294605,13.2419442 71.7675766,13.3300781 72.0644531,13.3300781 C72.1881517,13.3300781 72.3087559,13.3192547 72.4262695,13.2976074 C72.5437831,13.2759602 72.6551102,13.2465822 72.7602539,13.2094727 L73.0014648,14.8608398 C72.8097321,14.9659836 72.5808933,15.0479326 72.3149414,15.1066895 C72.0489896,15.1654463 71.7737644,15.1948242 71.4892578,15.1948242 C70.6604776,15.1948242 70.0110701,14.9520695 69.5410156,14.4665527 C69.0709612,13.981036 68.8359375,13.2187552 68.8359375,12.1796875 L68.8359375,6.63183594 L67.3051758,6.63183594 L67.3051758,4.96191406 L68.8359375,4.96191406 L68.8359375,2.52197266 L71.0810547,2.52197266 Z M79.8852539,6.99365234 L78.9204102,6.95654297 C78.4812804,6.95654297 78.1148289,7.04931548 77.8210449,7.23486328 C77.5272609,7.42041108 77.2999683,7.68326653 77.1391602,8.0234375 L77.1391602,15 L74.8847656,15 L74.8847656,4.96191406 L76.9443359,4.96191406 L77.0927734,6.41845703 C77.3463554,5.90510811 77.6726054,5.5030939 78.0715332,5.21240234 C78.470461,4.92171079 78.9296849,4.77636719 79.4492188,4.77636719 C79.5852871,4.77636719 79.7120762,4.78719065 79.8295898,4.80883789 C79.9471035,4.83048513 80.055338,4.85677068 80.1542969,4.88769531 L79.8852539,6.99365234 Z M85.7670898,15.1948242 C84.3445567,15.1948242 83.2111859,14.7294155 82.3669434,13.798584 C81.5227009,12.8677525 81.1005859,11.6725333 81.1005859,10.2128906 L81.1005859,9.84179688 C81.1005859,8.38215416 81.5196084,7.17147291 82.357666,6.2097168 C83.1957236,5.24796069 84.2455992,4.77018226 85.5073242,4.77636719 C86.8618232,4.77636719 87.8993291,5.18611244 88.619873,6.00561523 C89.340417,6.82511803 89.7006836,7.92447227 89.7006836,9.30371094 L89.7006836,10.6303711 L83.4384766,10.6303711 L83.4199219,10.6767578 C83.4570314,11.4746134 83.6905089,12.1271133 84.1203613,12.6342773 C84.5502137,13.1414413 85.145504,13.3950195 85.90625,13.3950195 C86.5123728,13.3950195 87.0318989,13.3208015 87.4648438,13.1723633 C87.8977886,13.023925 88.3152649,12.8105483 88.7172852,12.5322266 L89.440918,14.0073242 C89.0636374,14.3413103 88.5626659,14.6227202 87.9379883,14.8515625 C87.3133107,15.0804048 86.5896851,15.1948242 85.7670898,15.1948242 Z M85.5073242,6.58544922 C84.9506808,6.58544922 84.4930031,6.80655703 84.1342773,7.2487793 C83.7755516,7.69100156 83.5528976,8.25227524 83.4663086,8.93261719 L83.4848633,8.97900391 L87.4648438,8.97900391 L87.4648438,8.74707031 C87.4648438,8.11002286 87.3024919,7.5904968 86.9777832,7.18847656 C86.6530745,6.78645632 86.1629265,6.58544922 85.5073242,6.58544922 Z M95.8237305,15.1948242 C94.4011973,15.1948242 93.2678265,14.7294155 92.423584,13.798584 C91.5793415,12.8677525 91.1572266,11.6725333 91.1572266,10.2128906 L91.1572266,9.84179688 C91.1572266,8.38215416 91.5762491,7.17147291 92.4143066,6.2097168 C93.2523642,5.24796069 94.3022398,4.77018226 95.5639648,4.77636719 C96.9184638,4.77636719 97.9559697,5.18611244 98.6765137,6.00561523 C99.3970576,6.82511803 99.7573242,7.92447227 99.7573242,9.30371094 L99.7573242,10.6303711 L93.4951172,10.6303711 L93.4765625,10.6767578 C93.5136721,11.4746134 93.7471495,12.1271133 94.177002,12.6342773 C94.6068544,13.1414413 95.2021446,13.3950195 95.9628906,13.3950195 C96.5690134,13.3950195 97.0885395,13.3208015 97.5214844,13.1723633 C97.9544292,13.023925 98.3719055,12.8105483 98.7739258,12.5322266 L99.4975586,14.0073242 C99.1202781,14.3413103 98.6193065,14.6227202 97.9946289,14.8515625 C97.3699513,15.0804048 96.6463257,15.1948242 95.8237305,15.1948242 Z M95.5639648,6.58544922 C95.0073214,6.58544922 94.5496437,6.80655703 94.190918,7.2487793 C93.8321922,7.69100156 93.6095382,8.25227524 93.5229492,8.93261719 L93.5415039,8.97900391 L97.5214844,8.97900391 L97.5214844,8.74707031 C97.5214844,8.11002286 97.3591325,7.5904968 97.0344238,7.18847656 C96.7097152,6.78645632 96.2195671,6.58544922 95.5639648,6.58544922 Z M104.377441,2.52197266 L104.377441,4.96191406 L106.177246,4.96191406 L106.177246,6.63183594 L104.377441,6.63183594 L104.377441,12.1796875 C104.377441,12.5940776 104.467121,12.8894034 104.646484,13.0656738 C104.825847,13.2419442 105.063963,13.3300781 105.36084,13.3300781 C105.484538,13.3300781 105.605143,13.3192547 105.722656,13.2976074 C105.84017,13.2759602 105.951497,13.2465822 106.056641,13.2094727 L106.297852,14.8608398 C106.106119,14.9659836 105.87728,15.0479326 105.611328,15.1066895 C105.345376,15.1654463 105.070151,15.1948242 104.785645,15.1948242 C103.956864,15.1948242 103.307457,14.9520695 102.837402,14.4665527 C102.367348,13.981036 102.132324,13.2187552 102.132324,12.1796875 L102.132324,6.63183594 L100.601562,6.63183594 L100.601562,4.96191406 L102.132324,4.96191406 L102.132324,2.52197266 L104.377441,2.52197266 Z M113.821777,12.2724609 C113.821777,11.926105 113.673341,11.6385103 113.376465,11.409668 C113.079588,11.1808257 112.526046,10.9798186 111.71582,10.8066406 C110.515945,10.5530586 109.60832,10.192792 108.99292,9.72583008 C108.37752,9.25886811 108.069824,8.62337642 108.069824,7.81933594 C108.069824,6.9781859 108.425452,6.26074516 109.136719,5.66699219 C109.847985,5.07323922 110.784988,4.77636719 111.947754,4.77636719 C113.172369,4.77636719 114.144935,5.07787784 114.865479,5.6809082 C115.586022,6.28393856 115.930827,7.03075727 115.899902,7.92138672 L115.881348,7.97705078 L113.719727,7.97705078 C113.719727,7.56266069 113.562013,7.20703273 113.246582,6.91015625 C112.931151,6.61327977 112.498212,6.46484375 111.947754,6.46484375 C111.40348,6.46484375 110.989096,6.58699422 110.70459,6.83129883 C110.420083,7.07560344 110.277832,7.37402167 110.277832,7.7265625 C110.277832,8.07910333 110.412352,8.35896706 110.681396,8.56616211 C110.950441,8.77335716 111.496252,8.95735597 112.318848,9.11816406 C113.580573,9.37793099 114.516029,9.7443824 115.125244,10.2175293 C115.734459,10.6906762 116.039063,11.3354451 116.039063,12.1518555 C116.039063,13.0548548 115.666426,13.7877576 114.921143,14.3505859 C114.175859,14.9134143 113.194017,15.1948242 111.975586,15.1948242 C110.670566,15.1948242 109.640792,14.8608432 108.88623,14.1928711 C108.131669,13.524899 107.772949,12.7579796 107.810059,11.8920898 L107.828613,11.8364258 L109.925293,11.8364258 C109.950033,12.4178089 110.160317,12.84147 110.556152,13.1074219 C110.951988,13.3733737 111.434405,13.5063477 112.003418,13.5063477 C112.584801,13.5063477 113.033202,13.3950206 113.348633,13.1723633 C113.664064,12.9497059 113.821777,12.6497415 113.821777,12.2724609 Z" id="Living-Streets" fill="#297FCA"></path>
    </g>
</svg>