<?xml version="1.0" encoding="UTF-8"?>
<svg width="520px" height="647px" viewBox="0 0 520 647" version="1.1" xmlns="http://www.w3.org/2000/svg" xmlns:xlink="http://www.w3.org/1999/xlink">
    <!-- Generator: Sketch 52.4 (67378) - http://www.bohemiancoding.com/sketch -->
    <title>Artboard</title>
    <desc>Created with Sketch.</desc>
    <g id="Artboard" stroke="none" stroke-width="1" fill="none" fill-rule="evenodd">
        <g id="Poster">
            <g id="Group-2">
                <rect id="Rectangle" stroke="#3FA2F7" stroke-width="3" fill="#FFFFFF" x="1.5" y="1.5" width="634" height="722"></rect>
                <rect id="Rectangle" stroke="#3FA2F7" stroke-width="2" fill="#E4F1FD" x="46.6590909" y="124.427914" width="109.363636" height="21.351227"></rect>
                <rect id="Rectangle-Copy-9" stroke="#3FA2F7" stroke-width="2" fill="#E4F1FD" x="179.181818" y="124.427914" width="412.272727" height="21.351227"></rect>
                <rect id="Rectangle-Copy-3" stroke="#3FA2F7" stroke-width="2" fill="#E4F1FD" x="46.6590909" y="244.519939" width="109.363636" height="21.351227"></rect>
                <rect id="Rectangle-Copy-10" stroke="#3FA2F7" stroke-width="2" fill="#E4F1FD" x="179.181818" y="244.519939" width="412.272727" height="21.351227"></rect>
                <rect id="Rectangle-Copy-6" stroke="#3FA2F7" stroke-width="2" fill="#E4F1FD" x="46.6590909" y="364.611963" width="109.363636" height="21.351227"></rect>
                <rect id="Rectangle-Copy-11" stroke="#3FA2F7" stroke-width="2" fill="#E4F1FD" x="179.181818" y="364.611963" width="412.272727" height="21.351227"></rect>
                <rect id="Rectangle-Copy" stroke="#3FA2F7" stroke-width="2" fill="#E4F1FD" x="46.6590909" y="164.458589" width="109.363636" height="21.351227"></rect>
                <rect id="Rectangle-Copy-12" stroke="#3FA2F7" stroke-width="2" fill="#E4F1FD" x="179.181818" y="164.458589" width="412.272727" height="21.351227"></rect>
                <rect id="Rectangle-Copy-4" stroke="#3FA2F7" stroke-width="2" fill="#E4F1FD" x="46.6590909" y="284.550613" width="109.363636" height="21.351227"></rect>
                <rect id="Rectangle-Copy-13" stroke="#3FA2F7" stroke-width="2" fill="#E4F1FD" x="179.181818" y="284.550613" width="412.272727" height="21.351227"></rect>
                <rect id="Rectangle-Copy-7" stroke="#3FA2F7" stroke-width="2" fill="#E4F1FD" x="46.6590909" y="404.642638" width="109.363636" height="21.351227"></rect>
                <rect id="Rectangle-Copy-14" stroke="#3FA2F7" stroke-width="2" fill="#E4F1FD" x="179.181818" y="404.642638" width="412.272727" height="21.351227"></rect>
                <rect id="Rectangle-Copy-2" stroke="#3FA2F7" stroke-width="2" fill="#E4F1FD" x="46.6590909" y="204.489264" width="109.363636" height="21.351227"></rect>
                <rect id="Rectangle-Copy-15" stroke="#3FA2F7" stroke-width="2" fill="#E4F1FD" x="179.181818" y="204.489264" width="412.272727" height="21.351227"></rect>
                <rect id="Rectangle-Copy-5" stroke="#3FA2F7" stroke-width="2" fill="#E4F1FD" x="46.6590909" y="324.581288" width="109.363636" height="21.351227"></rect>
                <rect id="Rectangle-Copy-16" stroke="#3FA2F7" stroke-width="2" fill="#E4F1FD" x="179.181818" y="324.581288" width="412.272727" height="21.351227"></rect>
                <rect id="Rectangle-Copy-8" stroke="#3FA2F7" stroke-width="2" fill="#E4F1FD" x="46.6590909" y="444.673313" width="109.363636" height="21.351227"></rect>
                <rect id="Rectangle-Copy-17" stroke="#3FA2F7" stroke-width="2" fill="#E4F1FD" x="179.181818" y="444.673313" width="412.272727" height="21.351227"></rect>
                <g id="Icons-/-Icons-/-Icon-Image-100px" transform="translate(51.340909, 32.829755)" fill="#3FA2F7">
                    <path d="M97.029703,51.4866667 L70.9306931,24.1266667 C70.3712871,23.5396667 69.350495,23.5396667 68.7910891,24.1266667 L45.960396,48.0616667 C45.3910891,48.6576667 45.4079208,49.6066667 45.9990099,50.1816667 C46.590099,50.7566667 47.5316832,50.7406667 48.0990099,50.1426667 L69.8613861,27.3296667 L96.4554455,55.2076667 C96.6207921,55.3816667 96.8188119,55.5006667 97.029703,55.5756667 L97.029703,66.6666667 L56.0742574,66.6666667 L22.8425743,32.1216667 C22.2821782,31.5406667 21.2722772,31.5406667 20.7118812,32.1216667 L2.97029703,50.5646667 L2.97029703,3.66666667 L97.029703,3.66666667 L97.029703,51.4866667 Z M2.97029703,66.6666667 L2.97029703,54.8446667 C2.99306931,54.8226667 3.02376238,54.8156667 3.04554455,54.7926667 L21.7772277,35.3186667 L51.9316832,66.6666667 L2.97029703,66.6666667 Z M98.5148515,0.666666667 C99.3346535,0.666666667 100,1.33766667 100,2.16666667 L100,68.1666667 C100,68.9956667 99.3346535,69.6666667 98.5148515,69.6666667 L1.48514851,69.6666667 C0.665346535,69.6666667 0,68.9956667 0,68.1666667 L0,2.16666667 C0,1.33766667 0.665346535,0.666666667 1.48514851,0.666666667 L98.5148515,0.666666667 Z M42.5742574,32.6667667 C47.4881188,32.6667667 51.4851485,28.6287667 51.4851485,23.6667667 C51.4851485,18.7047667 47.4881188,14.6667667 42.5742574,14.6667667 C37.660396,14.6667667 33.6633663,18.7047667 33.6633663,23.6667667 C33.6633663,28.6287667 37.660396,32.6667667 42.5742574,32.6667667 Z M42.5742574,17.6667667 C45.850495,17.6667667 48.5148515,20.3577667 48.5148515,23.6667667 C48.5148515,26.9757667 45.850495,29.6667667 42.5742574,29.6667667 C39.2980198,29.6667667 36.6336634,26.9757667 36.6336634,23.6667667 C36.6336634,20.3577667 39.2980198,17.6667667 42.5742574,17.6667667 Z" id="Icon"></path>
                </g>
            </g>
        </g>
    </g>
</svg>