<?xml version="1.0" encoding="UTF-8"?>
<svg width="93px" height="372px" viewBox="0 0 93 372" version="1.1" xmlns="http://www.w3.org/2000/svg" xmlns:xlink="http://www.w3.org/1999/xlink">
    <!-- Generator: Sketch 52 (66869) - http://www.bohemiancoding.com/sketch -->
    <title>right-path</title>
    <desc>Created with Sketch.</desc>
    <g id="right-path" stroke="none" stroke-width="1" fill="none" fill-rule="evenodd">
        <path id="Path-2" d="M8.34106966,344.235986 L33.03017,354.641793 L30.6998505,360.170772 L1.09610199,347.69357 L-3.81854619,345.622175 L0.503783835,342.497769 L26.5396599,323.677683 L30.0546157,328.540304 L8.34106966,344.235986 Z M71.6901946,2.76572659 L77.6878139,2.59672469 C77.801572,6.63382569 77.9101317,10.6314825 78.0134929,14.5896957 L72.0155375,14.7463209 C71.9122846,10.792254 71.803837,6.79872234 71.6901946,2.76572659 Z M72.2435032,23.7565368 L78.2417068,23.6097253 C78.3406876,27.6537372 78.4340727,31.6552946 78.5218621,35.6143982 L72.5233366,35.7474099 C72.4356498,31.7929311 72.342372,27.7959731 72.2435032,23.7565368 Z M72.7143622,44.7287066 L78.7131203,44.6066356 C78.7954997,48.6548847 78.8718321,52.657261 78.9421176,56.6137654 L72.9430641,56.7203358 C72.872871,52.7690284 72.7966371,48.7718184 72.7143622,44.7287066 Z M73.0935513,65.7079789 L79.0928116,65.613763 C79.1565046,69.669457 79.213612,73.6751989 79.2641337,77.63099 L73.264623,77.7076132 C73.2141767,73.7577235 73.1571528,69.757845 73.0935513,65.7079789 Z M73.3688682,86.6866597 L79.3685422,86.6241122 C79.4108518,90.6825321 79.4459537,94.6862905 79.4738474,98.6353894 L73.4739971,98.6777683 C73.4461511,94.735439 73.4111082,90.7384022 73.3688682,86.6866597 Z M73.5254871,107.679637 L79.5254304,107.653554 C79.5431007,111.718298 79.5527986,115.722596 79.5545236,119.666451 L73.5545241,119.669076 C73.5528026,115.7331 73.5431237,111.736619 73.5254871,107.679637 Z M73.5443621,128.648131 L79.5443396,128.664565 C79.5331839,132.737645 79.5131082,136.743119 79.4841118,140.680991 L73.4842744,140.636812 C73.5132021,136.708268 73.5332316,132.71204 73.5443621,128.648131 Z M73.4012993,149.620496 L79.4009257,149.687452 C79.3553636,153.770031 79.2996828,157.775955 79.2338824,161.705232 L73.2347235,161.604769 C73.3003351,157.686769 73.3558607,153.69201 73.4012993,149.620496 Z M73.0634586,170.601267 L79.0620853,170.729634 C78.9745004,174.822504 78.8752366,178.826964 78.764292,182.743025 L72.7666985,182.573109 C72.8772463,178.671052 72.9761669,174.680435 73.0634586,170.601267 Z M72.4865576,191.54924 L78.4830529,191.754284 C78.3424973,195.864806 78.188111,199.870746 78.0198902,203.772124 L72.02546,203.513655 C72.1929028,199.630319 72.3466033,195.642175 72.4865576,191.54924 Z M71.6052924,212.473725 L77.5975547,212.778344 C77.3873876,216.912609 77.1602796,220.919021 76.9162216,224.797615 L70.9280649,224.420814 C71.1705846,220.566665 71.3963301,216.58429 71.6052924,212.473725 Z M70.3175305,233.374205 L76.3012795,233.815508 C75.9939138,237.983167 75.6647249,241.98673 75.3136873,245.826279 L69.3386077,245.279997 C69.6863811,241.476151 70.0126973,237.507526 70.3175305,233.374205 Z M68.4531037,254.182253 L74.4183401,254.827198 C73.9612334,259.055071 73.4734539,263.054219 72.9548997,266.824895 L67.010845,266.007451 C67.5212735,262.295862 68.0020604,258.354044 68.4531037,254.182253 Z M65.6708967,274.819566 L71.5877157,275.815184 C70.8542765,280.173915 70.0692824,284.158016 69.2319673,287.768769 L63.387065,286.413366 C64.1954015,282.927577 64.9569342,279.06255 65.6708967,274.819566 Z M61.1528713,294.956205 L66.9110403,296.64247 C65.7043605,300.762976 64.3750517,304.637408 62.9223642,308.265878 L57.3521922,306.035814 C58.7317346,302.590043 59.9988775,298.896802 61.1528713,294.956205 Z M53.748102,313.982179 L59.0849518,316.724083 C57.07996,320.626605 54.8921123,324.171069 52.5197193,327.356062 L47.7078875,323.771892 C49.8767844,320.860098 51.8907524,317.597331 53.748102,313.982179 Z M42.1047961,330.185406 L46.2771218,334.497215 C43.1177598,337.554374 39.7026267,340.105529 36.0351081,342.144861 L33.1192606,336.901023 C36.3229838,335.119586 39.3170338,332.882987 42.1047961,330.185406 Z M25.8146187,339.22458 L26.4942135,345.185969 L14.5714368,346.545158 L13.891842,340.58377 L25.8146187,339.22458 Z" fill="#000000" fill-rule="nonzero"></path>
    </g>
</svg>