<?xml version="1.0" encoding="UTF-8"?>
<svg width="93px" height="372px" viewBox="0 0 93 372" version="1.1" xmlns="http://www.w3.org/2000/svg" xmlns:xlink="http://www.w3.org/1999/xlink">
    <!-- Generator: Sketch 52 (66869) - http://www.bohemiancoding.com/sketch -->
    <title>Artboard Copy</title>
    <desc>Created with Sketch.</desc>
    <g id="Artboard-Copy" stroke="none" stroke-width="1" fill="none" fill-rule="evenodd">
        <path id="Path-2" d="M12.4183698,345.95446 C11.788553,345.476483 11.3475701,344.751852 11.2509452,343.904261 C11.1543204,343.056671 11.4208931,342.251379 11.9269697,341.64391 L8.34106966,344.235986 L12.4183698,345.95446 Z M13.7898646,346.532509 L33.03017,354.641793 C34.5569554,355.285293 35.2729998,357.044657 34.6294998,358.571442 C33.9859999,360.098228 32.2266359,360.814272 30.6998505,360.170772 L1.09610199,347.69357 L-3.81854619,345.622175 L0.503783835,342.497769 L26.5396599,323.677683 C27.8824357,322.707055 29.7578202,323.00874 30.7284484,324.351516 C31.6990767,325.694291 31.3973915,327.569676 30.0546157,328.540304 L13.1331706,340.772006 C13.371365,340.678482 13.6255344,340.614129 13.891842,340.58377 L25.8146187,339.22458 C27.4608107,339.036916 28.9474454,340.219285 29.1351103,341.865477 C29.3227752,343.511669 28.1404054,344.998304 26.4942135,345.185969 L14.5714368,346.545158 C14.3051291,346.575517 14.0429971,346.570022 13.7898646,346.532509 Z M71.6901946,2.76572659 C71.643526,1.10952972 72.9483064,-0.270915472 74.6045033,-0.317584057 C76.2607002,-0.364252642 77.6411454,0.940527828 77.6878139,2.59672469 C77.801572,6.63382569 77.9101317,10.6314825 78.0134929,14.5896957 C78.0567437,16.2459853 76.7491174,17.6237351 75.0928278,17.666986 C73.4365381,17.7102368 72.0587884,16.4026105 72.0155375,14.7463209 C71.9122846,10.792254 71.803837,6.79872234 71.6901946,2.76572659 Z M72.2435032,23.7565368 C72.2029623,22.1001786 73.5128411,20.7245701 75.1691992,20.6840293 C76.8255574,20.6434884 78.2011659,21.9533672 78.2417068,23.6097253 C78.3406876,27.6537372 78.4340727,31.6552946 78.5218621,35.6143982 C78.5585923,37.2708453 77.2455523,38.6434366 75.5891052,38.6801668 C73.9326581,38.7168969 72.5600668,37.4038569 72.5233366,35.7474099 C72.4356498,31.7929311 72.342372,27.7959731 72.2435032,23.7565368 Z M72.7143622,44.7287066 C72.6806532,43.0721953 73.9961944,41.702001 75.6527057,41.668292 C77.309217,41.634583 78.6794113,42.9501243 78.7131203,44.6066356 C78.7954997,48.6548847 78.8718321,52.657261 78.9421176,56.6137654 C78.9715462,58.2703583 77.6524689,59.6371487 75.995876,59.6665773 C74.3392831,59.6960059 72.9724927,58.3769286 72.9430641,56.7203358 C72.872871,52.7690284 72.7966371,48.7718184 72.7143622,44.7287066 Z M73.0935513,65.7079789 C73.0675343,64.051329 74.3894235,62.6872579 76.0460735,62.6612408 C77.7027234,62.6352238 79.0667945,63.957113 79.0928116,65.613763 C79.1565046,69.669457 79.213612,73.6751989 79.2641337,77.63099 C79.2852926,79.2877091 77.9594091,80.647898 76.3026899,80.6690569 C74.6459708,80.6902158 73.2857819,79.3643323 73.264623,77.7076132 C73.2141767,73.7577235 73.1571528,69.757845 73.0935513,65.7079789 Z M73.3688682,86.6866597 C73.3515962,85.0298955 74.6806672,83.672821 76.3374314,83.655549 C77.9941956,83.6382769 79.3512701,84.967348 79.3685422,86.6241122 C79.4108518,90.6825321 79.4459537,94.6862905 79.4738474,98.6353894 C79.48555,100.292202 78.1519246,101.644801 76.4951117,101.656504 C74.8382988,101.668207 73.4856997,100.334581 73.4739971,98.6777683 C73.4461511,94.735439 73.4111082,90.7384022 73.3688682,86.6866597 Z M73.5254871,107.679637 C73.5182844,106.022799 74.8555786,104.673827 76.5124172,104.666624 C78.1692558,104.659421 79.5182278,105.996716 79.5254304,107.653554 C79.5431007,111.718298 79.5527986,115.722596 79.5545236,119.666451 C79.5552482,121.323306 78.2126901,122.667039 76.555836,122.667763 C74.8989819,122.668488 73.5552488,121.32593 73.5545241,119.669076 C73.5528026,115.7331 73.5431237,111.736619 73.5254871,107.679637 Z M73.5443621,128.648131 C73.5489,126.991283 74.8957194,125.651821 76.5525675,125.656359 C78.2094155,125.660897 79.5488775,127.007717 79.5443396,128.664565 C79.5331839,132.737645 79.5131082,136.743119 79.4841118,140.680991 C79.4719119,142.337801 78.1189126,143.67102 76.4621033,143.65882 C74.805294,143.64662 73.4720746,142.293621 73.4842744,140.636812 C73.5132021,136.708268 73.5332316,132.71204 73.5443621,128.648131 Z M73.4012993,149.620496 C73.4197889,147.963745 74.7778397,146.635671 76.4345908,146.654161 C78.0913419,146.672651 79.4194152,148.030701 79.4009257,149.687452 C79.3553636,153.770031 79.2996828,157.775955 79.2338824,161.705232 C79.2061403,163.361854 77.8406934,164.682322 76.1840714,164.65458 C74.5274494,164.626838 73.2069814,163.261391 73.2347235,161.604769 C73.3003351,157.686769 73.3558607,153.69201 73.4012993,149.620496 Z M73.0634586,170.601267 C73.0989062,168.944792 74.4704805,167.63069 76.1269555,167.666137 C77.7834305,167.701585 79.0975329,169.073159 79.0620853,170.729634 C78.9745004,174.822504 78.8752366,178.826964 78.764292,182.743025 C78.7173711,184.399214 77.3367271,185.703785 75.6805374,185.656864 C74.0243477,185.609943 72.7197775,184.229299 72.7666985,182.573109 C72.8772463,178.671052 72.9761669,174.680435 73.0634586,170.601267 Z M72.4865576,191.54924 C72.5431791,189.893353 73.9314412,188.596893 75.5873277,188.653514 C77.2432141,188.710136 78.5396745,190.098398 78.4830529,191.754284 C78.3424973,195.864806 78.188111,199.870746 78.0198902,203.772124 C77.9485157,205.427441 76.5487564,206.711479 74.8934402,206.640105 C73.238124,206.56873 71.9540855,205.168971 72.02546,203.513655 C72.1929028,199.630319 72.3466033,195.642175 72.4865576,191.54924 Z M71.6052924,212.473725 C71.6894107,210.819007 73.0990156,209.545785 74.7537332,209.629903 C76.4084507,209.714022 77.681673,211.123627 77.5975547,212.778344 C77.3873876,216.912609 77.1602796,220.919021 76.9162216,224.797615 C76.812171,226.451198 75.3873267,227.707343 73.7337429,227.603293 C72.080159,227.499242 70.8240142,226.074398 70.9280649,224.420814 C71.1705846,220.566665 71.3963301,216.58429 71.6052924,212.473725 Z M70.3175305,233.374205 C70.4393929,231.721838 71.8776897,230.48112 73.5300564,230.602982 C75.1824231,230.724844 76.4231419,232.163141 76.3012795,233.815508 C75.9939138,237.983167 75.6647249,241.98673 75.3136873,245.826279 C75.1628356,247.476252 73.702979,248.691529 72.0530063,248.540678 C70.4030337,248.389826 69.187756,246.929969 69.3386077,245.279997 C69.6863811,241.476151 70.0126973,237.507526 70.3175305,233.374205 Z M68.4531037,254.182253 C68.6312006,252.534998 70.1109403,251.34401 71.7581949,251.522107 C73.4054494,251.700204 74.596437,253.179944 74.4183401,254.827198 C73.9612334,259.055071 73.4734539,263.054219 72.9548997,266.824895 C72.7291689,268.4663 71.215556,269.613931 69.5741506,269.3882 C67.9327452,269.16247 66.7851142,267.648857 67.010845,266.007451 C67.5212735,262.295862 68.0020604,258.354044 68.4531037,254.182253 Z M65.6708967,274.819566 C65.9458288,273.185682 67.4932303,272.084033 69.1271147,272.358965 C70.7609992,272.633898 71.8626477,274.181299 71.5877157,275.815184 C70.8542765,280.173915 70.0692824,284.158016 69.2319673,287.768769 C68.8576831,289.382794 67.2458399,290.387802 65.6318147,290.013518 C64.0177895,289.639234 63.0127808,288.027391 63.387065,286.413366 C64.1954015,282.927577 64.9569342,279.06255 65.6708967,274.819566 Z M61.1528713,294.956205 C61.6185205,293.36613 63.2850138,292.454604 64.8750883,292.920253 C66.4651628,293.385902 67.3766895,295.052395 66.9110403,296.64247 C65.7043605,300.762976 64.3750517,304.637408 62.9223642,308.265878 C62.3065492,309.804038 60.5604069,310.551747 59.0222464,309.935932 C57.4840859,309.320117 56.7363771,307.573975 57.3521922,306.035814 C58.7317346,302.590043 59.9988775,298.896802 61.1528713,294.956205 Z M53.748102,313.982179 C54.5052577,312.508449 56.3137482,311.92755 57.7874786,312.684706 C59.261209,313.441862 59.8421075,315.250352 59.0849518,316.724083 C57.07996,320.626605 54.8921123,324.171069 52.5197193,327.356062 C51.5299781,328.684813 49.6504691,328.959635 48.3217184,327.969893 C46.9929677,326.980152 46.7181463,325.100643 47.7078875,323.771892 C49.8767844,320.860098 51.8907524,317.597331 53.748102,313.982179 Z M42.1047961,330.185406 C43.2954694,329.03325 45.1947076,329.064475 46.3468636,330.255148 C47.4990195,331.445821 47.467795,333.345059 46.2771218,334.497215 C43.1177598,337.554374 39.7026267,340.105529 36.0351081,342.144861 C34.5870623,342.95005 32.7604546,342.428912 31.9552655,340.980866 C31.1500765,339.53282 31.6712149,337.706212 33.1192606,336.901023 C36.3229838,335.119586 39.3170338,332.882987 42.1047961,330.185406 Z" fill="#000000" fill-rule="nonzero"></path>
    </g>
</svg>