<?xml version="1.0" encoding="UTF-8"?>
<svg width="81px" height="121px" viewBox="0 0 81 121" version="1.1" xmlns="http://www.w3.org/2000/svg" xmlns:xlink="http://www.w3.org/1999/xlink">
    <!-- Generator: Sketch 52 (66869) - http://www.bohemiancoding.com/sketch -->
    <title>white-logo</title>
    <desc>Created with Sketch.</desc>
    <g id="Symbols" stroke="none" stroke-width="1" fill="none" fill-rule="evenodd">
        <g id="Footer" transform="translate(-252.000000, -38.000000)">
            <g id="white-logo">
                <g transform="translate(252.000000, 38.000000)">
                    <rect id="Rectangle" fill="#FFFFFF" x="0" y="100" width="81" height="21"></rect>
                    <rect id="Rectangle" fill="#FFFFFF" x="0" y="0" width="81" height="21"></rect>
                    <rect id="Rectangle" fill="#FFFFFF" x="0" y="67" width="81" height="21"></rect>
                    <rect id="Rectangle" fill="#FFFFFF" x="0" y="33" width="81" height="21"></rect>
                    <g id="Group" transform="translate(9.000000, 37.000000)" fill="#000000">
                        <polygon id="Path" points="8.23126733 14.3750649 8.23126733 0.534857143 11.2938218 0.534857143 11.2938218 11.5773506 14.9653267 11.5773506 14.9653267 14.3750649"></polygon>
                        <rect id="Rectangle" x="16.4042178" y="0.534857143" width="3.06255446" height="13.8402078"></rect>
                        <path d="M20.7798218,0.534857143 L24.016099,0.534857143 L25.1474455,7.80467532 C25.1824356,8.04342857 25.3217822,9.03771429 25.5133069,10.8043636 C25.6520396,9.49776623 25.756396,8.5041039 25.8607525,7.82275325 L27.009901,0.534857143 L30.2461782,0.534857143 L27.2707921,14.3750649 L23.7030297,14.3750649 L20.7798218,0.534857143 Z" id="Path"></path>
                        <rect id="Rectangle" x="31.3345545" y="0.534857143" width="3.06255446" height="13.8402078"></rect>
                        <path d="M36.0655842,0.534857143 L39.250297,0.534857143 L41.7898416,9.07511688 C41.5983168,6.33225974 41.4951881,4.21651948 41.4951881,2.70732468 L41.4951881,0.535480519 L44.2262574,0.535480519 L44.2262574,14.3756883 L41.0243564,14.3756883 L38.466396,5.5785974 C38.6929109,7.8052987 38.8144554,9.95844156 38.8144554,12.0386494 L38.8144554,14.3763117 L36.0649703,14.3763117 L36.0655842,0.534857143 Z" id="Path"></path>
                        <path d="M53.9786733,14.3750649 L51.8731287,14.3750649 L51.7337822,13.5098182 C51.1248317,14.2647273 50.3931089,14.6144416 49.4545149,14.6144416 C48.3931485,14.6144416 47.4705149,14.1911688 46.8093861,13.3994805 C45.7652079,12.1658182 45.6780396,10.2158961 45.6780396,7.27106494 C45.6780396,4.67594805 45.8695644,2.92737662 46.4085347,2.02535065 C47.1396436,0.811012987 48.3397426,0.203220779 49.9756832,0.203220779 C52.5508317,0.203220779 53.855901,1.69433766 53.855901,4.62046753 C53.855901,4.78628571 53.8387129,4.95148052 53.8387129,5.136 L50.9333069,5.136 L50.9333069,4.97018182 C50.9333069,3.44228571 50.671802,2.74285714 49.9063168,2.74285714 C48.8449505,2.74285714 48.7755842,3.86555844 48.7755842,6.31355844 L48.7755842,7.67563636 L48.7755842,8.63251948 C48.7755842,11.0618182 48.8271485,12.1477403 49.8541386,12.1477403 C50.7067921,12.1477403 51.0376634,11.4302338 51.0376634,9.90233766 C51.0376634,9.68166234 51.0376634,9.46036364 51.0204752,9.20290909 L49.8203762,9.20290909 L49.8203762,6.79168831 L53.9780594,6.79168831 L53.9780594,14.3750649 L53.9786733,14.3750649 Z" id="Path"></path>
                        <path d="M3.31607921,42.8515325 L3.31607921,43.2561039 C3.31607921,44.6923636 3.5769703,45.3375584 4.42962376,45.3375584 C5.0729505,45.3375584 5.47318812,44.8394805 5.47318812,44.011013 C5.47318812,42.8696104 4.75988119,42.5392208 3.76849505,41.8391688 C2.6549505,41.0474805 1.80229703,40.4583896 1.33269307,39.7595844 C0.897465347,39.0969351 0.670950495,38.2503896 0.670950495,37.2561039 C0.670950495,34.8261818 2.08037624,33.3718442 4.39463366,33.3718442 C6.93479208,33.3718442 8.29265347,34.7700779 8.29265347,37.3296623 C8.29265347,37.4767792 8.27546535,37.6245195 8.27546535,37.7716364 L5.5259802,37.7716364 L5.5259802,37.6058182 C5.5259802,36.3908571 5.16073267,35.7643636 4.48180198,35.7643636 C3.9250297,35.7643636 3.52479208,36.2063377 3.52479208,36.9606234 C3.52479208,37.9736104 4.30746535,38.342026 5.43881188,39.115013 C6.46580198,39.8144416 7.31845545,40.329974 7.82243564,41.1584416 C8.18829703,41.7656104 8.3970099,42.5753766 8.3970099,43.550961 C8.3970099,46.3312208 6.98758416,47.8765714 4.46461386,47.8765714 C1.81948515,47.8765714 0.479425743,46.4403117 0.479425743,43.6058182 C0.479425743,43.3664416 0.496613861,43.108987 0.514415842,42.8509091 L3.31607921,42.8509091 L3.31607921,42.8515325 Z" id="Path"></path>
                        <polygon id="Path" points="11.5356832 36.3896104 9.08207921 36.3896104 9.08207921 33.7028571 17.174 33.7028571 17.174 36.3896104 14.5982376 36.3896104 14.5982376 47.5461818 11.5356832 47.5461818"></polygon>
                        <path d="M18.2869307,33.7028571 L21.7319208,33.7028571 C23.4722178,33.7028571 24.6379406,33.7764156 25.4212277,34.4396883 C26.1867129,35.1017143 26.5347723,36.0411429 26.5347723,37.3296623 C26.5347723,38.913039 26.0301782,39.9628052 24.9160198,40.6616104 C26.3432475,41.3242597 26.3604356,42.2443636 26.4126139,43.8645195 C26.4647921,45.6498701 26.3432475,46.8467532 27.1609109,47.5468052 L23.5765743,47.5468052 C23.4200396,46.9577143 23.3500594,46.3324675 23.3500594,45.6317922 C23.3500594,45.0246234 23.3850495,44.5645714 23.3850495,44.2148571 C23.3850495,42.614026 23.0891683,42.0062338 21.9406337,42.0062338 L21.3138812,42.0062338 L21.3138812,47.5474286 L18.2863168,47.5474286 L18.2863168,33.7028571 L18.2869307,33.7028571 Z M21.6975446,39.4834286 C22.9504356,39.4834286 23.4372277,39.0040519 23.4372277,37.7161558 C23.4372277,36.5186494 22.9504356,36.0772987 21.6975446,36.0772987 C21.576,36.0772987 21.4538416,36.0953766 21.314495,36.0953766 L21.314495,39.4641039 C21.4538416,39.4647273 21.5753861,39.4834286 21.6975446,39.4834286 Z" id="Shape" fill-rule="nonzero"></path>
                        <polygon id="Path" points="28.1774653 33.7028571 35.2945743 33.7028571 35.2945743 36.3896104 31.2222178 36.3896104 31.2222178 38.9311169 34.9808911 38.9311169 34.9808911 41.7107532 31.2222178 41.7107532 31.2222178 44.7291429 35.2945743 44.7291429 35.2945743 47.5461818 28.1774653 47.5461818"></polygon>
                        <polygon id="Path" points="36.7488119 33.7028571 43.8653069 33.7028571 43.8653069 36.3896104 39.7935644 36.3896104 39.7935644 38.9311169 43.5522376 38.9311169 43.5522376 41.7107532 39.7935644 41.7107532 39.7935644 44.7291429 43.8653069 44.7291429 43.8653069 47.5461818 36.7488119 47.5461818"></polygon>
                        <polygon id="Path" points="47.3735248 36.3896104 44.9199208 36.3896104 44.9199208 33.7028571 53.0112277 33.7028571 53.0112277 36.3896104 50.4360792 36.3896104 50.4360792 47.5461818 47.3735248 47.5461818"></polygon>
                        <path d="M56.5034851,42.8515325 L56.5034851,43.2561039 C56.5034851,44.6923636 56.7643762,45.3375584 57.6164158,45.3375584 C58.2609703,45.3375584 58.6605941,44.8394805 58.6605941,44.011013 C58.6605941,42.8696104 57.9472871,42.5392208 56.9552871,41.8391688 C55.8423564,41.0474805 54.989703,40.4583896 54.5194851,39.7595844 C54.0836436,39.0969351 53.8583564,38.2503896 53.8583564,37.2561039 C53.8583564,34.8261818 55.2677822,33.3718442 57.5814257,33.3718442 C60.122198,33.3718442 61.4800594,34.7700779 61.4800594,37.3296623 C61.4800594,37.4767792 61.4628713,37.6245195 61.4628713,37.7716364 L58.7133861,37.7716364 L58.7133861,37.6058182 C58.7133861,36.3908571 58.3475248,35.7643636 57.6692079,35.7643636 C57.1130495,35.7643636 56.7128119,36.2063377 56.7128119,36.9606234 C56.7128119,37.9736104 57.4954851,38.342026 58.6262178,39.115013 C59.6532079,39.8144416 60.5058614,40.329974 61.0098416,41.1584416 C61.375703,41.7656104 61.5850297,42.5753766 61.5850297,43.550961 C61.5850297,46.3312208 60.175604,47.8765714 57.6520198,47.8765714 C55.0068911,47.8765714 53.6674455,46.4403117 53.6674455,43.6058182 C53.6674455,43.3664416 53.6852475,43.108987 53.7024356,42.8509091 L56.5034851,42.8509091 L56.5034851,42.8515325 Z" id="Path"></path>
                    </g>
                </g>
            </g>
        </g>
    </g>
</svg>